<svg width="688" height="688" viewBox="0 0 688 688" fill="none" xmlns="http://www.w3.org/2000/svg">
<g clip-path="url(#clip0_49_3)">
<rect width="688" height="688" fill="white"/>
<g filter="url(#filter0_d_49_3)">
<rect x="55" y="71" width="577" height="546" rx="166" fill="black"/>
</g>
<path d="M286.75 291.5C284.09 291.5 282 289.41 282 286.75C282 284.09 284.09 282 286.75 282C289.41 282 291.5 284.09 291.5 286.75C291.5 289.41 289.41 291.5 286.75 291.5ZM296.25 291.5C293.59 291.5 291.5 289.41 291.5 286.75C291.5 284.09 293.59 282 296.25 282C298.91 282 301 284.09 301 286.75C301 289.41 298.91 291.5 296.25 291.5ZM277.25 291.5C274.59 291.5 272.5 289.41 272.5 286.75C272.5 284.09 274.59 282 277.25 282C279.91 282 282 284.09 282 286.75C282 289.41 279.91 291.5 277.25 291.5ZM267.75 291.5C265.09 291.5 263 289.41 263 286.75C263 284.09 265.09 282 267.75 282C270.41 282 272.5 284.09 272.5 286.75C272.5 289.41 270.41 291.5 267.75 291.5ZM296.25 301C293.59 301 291.5 298.91 291.5 296.25C291.5 293.59 293.59 291.5 296.25 291.5C298.91 291.5 301 293.59 301 296.25C301 298.91 298.91 301 296.25 301ZM286.75 301C284.09 301 282 298.91 282 296.25C282 293.59 284.09 291.5 286.75 291.5C289.41 291.5 291.5 293.59 291.5 296.25C291.5 298.91 289.41 301 286.75 301ZM277.25 301C274.59 301 272.5 298.91 272.5 296.25C272.5 293.59 274.59 291.5 277.25 291.5C279.91 291.5 282 293.59 282 296.25C282 298.91 279.91 301 277.25 301ZM267.75 301C265.09 301 263 298.91 263 296.25C263 293.59 265.09 291.5 267.75 291.5C270.41 291.5 272.5 293.59 272.5 296.25C272.5 298.91 270.41 301 267.75 301ZM286.75 310.5C284.09 310.5 282 308.41 282 305.75C282 303.09 284.09 301 286.75 301C289.41 301 291.5 303.09 291.5 305.75C291.5 308.41 289.41 310.5 286.75 310.5ZM258.25 310.5C255.59 310.5 253.5 308.41 253.5 305.75C253.5 303.09 255.59 301 258.25 301C260.91 301 263 303.09 263 305.75C263 308.41 260.91 310.5 258.25 310.5ZM267.75 310.5C265.09 310.5 263 308.41 263 305.75C263 303.09 265.09 301 267.75 301C270.41 301 272.5 303.09 272.5 305.75C272.5 308.41 270.41 310.5 267.75 310.5ZM277.25 310.5C274.59 310.5 272.5 308.41 272.5 305.75C272.5 303.09 274.59 301 277.25 301C279.91 301 282 303.09 282 305.75C282 308.41 279.91 310.5 277.25 310.5ZM286.75 320C284.09 320 282 317.91 282 315.25C282 312.59 284.09 310.5 286.75 310.5C289.41 310.5 291.5 312.59 291.5 315.25C291.5 317.91 289.41 320 286.75 320ZM258.25 320C255.59 320 253.5 317.91 253.5 315.25C253.5 312.59 255.59 310.5 258.25 310.5C260.91 310.5 263 312.59 263 315.25C263 317.91 260.91 320 258.25 320ZM267.75 320C265.09 320 263 317.91 263 315.25C263 312.59 265.09 310.5 267.75 310.5C270.41 310.5 272.5 312.59 272.5 315.25C272.5 317.91 270.41 320 267.75 320ZM277.25 320C274.59 320 272.5 317.91 272.5 315.25C272.5 312.59 274.59 310.5 277.25 310.5C279.91 310.5 282 312.59 282 315.25C282 317.91 279.91 320 277.25 320ZM248.75 329.5C246.09 329.5 244 327.41 244 324.75C244 322.09 246.09 320 248.75 320C251.41 320 253.5 322.09 253.5 324.75C253.5 327.41 251.41 329.5 248.75 329.5ZM258.25 329.5C255.59 329.5 253.5 327.41 253.5 324.75C253.5 322.09 255.59 320 258.25 320C260.91 320 263 322.09 263 324.75C263 327.41 260.91 329.5 258.25 329.5ZM277.25 329.5C274.59 329.5 272.5 327.41 272.5 324.75C272.5 322.09 274.59 320 277.25 320C279.91 320 282 322.09 282 324.75C282 327.41 279.91 329.5 277.25 329.5ZM267.75 329.5C265.09 329.5 263 327.41 263 324.75C263 322.09 265.09 320 267.75 320C270.41 320 272.5 322.09 272.5 324.75C272.5 327.41 270.41 329.5 267.75 329.5ZM248.75 339C246.09 339 244 336.91 244 334.25C244 331.59 246.09 329.5 248.75 329.5C251.41 329.5 253.5 331.59 253.5 334.25C253.5 336.91 251.41 339 248.75 339ZM258.25 339C255.59 339 253.5 336.91 253.5 334.25C253.5 331.59 255.59 329.5 258.25 329.5C260.91 329.5 263 331.59 263 334.25C263 336.91 260.91 339 258.25 339ZM277.25 339C274.59 339 272.5 336.91 272.5 334.25C272.5 331.59 274.59 329.5 277.25 329.5C279.91 329.5 282 331.59 282 334.25C282 336.91 279.91 339 277.25 339ZM267.75 339C265.09 339 263 336.91 263 334.25C263 331.59 265.09 329.5 267.75 329.5C270.41 329.5 272.5 331.59 272.5 334.25C272.5 336.91 270.41 339 267.75 339ZM239.25 348.5C236.59 348.5 234.5 346.41 234.5 343.75C234.5 341.09 236.59 339 239.25 339C241.91 339 244 341.09 244 343.75C244 346.41 241.91 348.5 239.25 348.5ZM248.75 348.5C246.09 348.5 244 346.41 244 343.75C244 341.09 246.09 339 248.75 339C251.41 339 253.5 341.09 253.5 343.75C253.5 346.41 251.41 348.5 248.75 348.5ZM267.75 348.5C265.09 348.5 263 346.41 263 343.75C263 341.09 265.09 339 267.75 339C270.41 339 272.5 341.09 272.5 343.75C272.5 346.41 270.41 348.5 267.75 348.5ZM258.25 348.5C255.59 348.5 253.5 346.41 253.5 343.75C253.5 341.09 255.59 339 258.25 339C260.91 339 263 341.09 263 343.75C263 346.41 260.91 348.5 258.25 348.5ZM239.25 358C236.59 358 234.5 355.91 234.5 353.25C234.5 350.59 236.59 348.5 239.25 348.5C241.91 348.5 244 350.59 244 353.25C244 355.91 241.91 358 239.25 358ZM248.75 358C246.09 358 244 355.91 244 353.25C244 350.59 246.09 348.5 248.75 348.5C251.41 348.5 253.5 350.59 253.5 353.25C253.5 355.91 251.41 358 248.75 358ZM267.75 358C265.09 358 263 355.91 263 353.25C263 350.59 265.09 348.5 267.75 348.5C270.41 348.5 272.5 350.59 272.5 353.25C272.5 355.91 270.41 358 267.75 358ZM258.25 358C255.59 358 253.5 355.91 253.5 353.25C253.5 350.59 255.59 348.5 258.25 348.5C260.91 348.5 263 350.59 263 353.25C263 355.91 260.91 358 258.25 358ZM258.25 367.5C255.59 367.5 253.5 365.41 253.5 362.75C253.5 360.09 255.59 358 258.25 358C260.91 358 263 360.09 263 362.75C263 365.41 260.91 367.5 258.25 367.5ZM239.25 367.5C236.59 367.5 234.5 365.41 234.5 362.75C234.5 360.09 236.59 358 239.25 358C241.91 358 244 360.09 244 362.75C244 365.41 241.91 367.5 239.25 367.5ZM229.75 367.5C227.09 367.5 225 365.41 225 362.75C225 360.09 227.09 358 229.75 358C232.41 358 234.5 360.09 234.5 362.75C234.5 365.41 232.41 367.5 229.75 367.5ZM248.75 367.5C246.09 367.5 244 365.41 244 362.75C244 360.09 246.09 358 248.75 358C251.41 358 253.5 360.09 253.5 362.75C253.5 365.41 251.41 367.5 248.75 367.5ZM229.75 377C227.09 377 225 374.91 225 372.25C225 369.59 227.09 367.5 229.75 367.5C232.41 367.5 234.5 369.59 234.5 372.25C234.5 374.91 232.41 377 229.75 377ZM248.75 377C246.09 377 244 374.91 244 372.25C244 369.59 246.09 367.5 248.75 367.5C251.41 367.5 253.5 369.59 253.5 372.25C253.5 374.91 251.41 377 248.75 377ZM258.25 377C255.59 377 253.5 374.91 253.5 372.25C253.5 369.59 255.59 367.5 258.25 367.5C260.91 367.5 263 369.59 263 372.25C263 374.91 260.91 377 258.25 377ZM239.25 377C236.59 377 234.5 374.91 234.5 372.25C234.5 369.59 236.59 367.5 239.25 367.5C241.91 367.5 244 369.59 244 372.25C244 374.91 241.91 377 239.25 377ZM239.25 386.5C236.59 386.5 234.5 384.41 234.5 381.75C234.5 379.09 236.59 377 239.25 377C241.91 377 244 379.09 244 381.75C244 384.41 241.91 386.5 239.25 386.5ZM220.25 386.5C217.59 386.5 215.5 384.41 215.5 381.75C215.5 379.09 217.59 377 220.25 377C222.91 377 225 379.09 225 381.75C225 384.41 222.91 386.5 220.25 386.5ZM229.75 386.5C227.09 386.5 225 384.41 225 381.75C225 379.09 227.09 377 229.75 377C232.41 377 234.5 379.09 234.5 381.75C234.5 384.41 232.41 386.5 229.75 386.5ZM248.75 386.5C246.09 386.5 244 384.41 244 381.75C244 379.09 246.09 377 248.75 377C251.41 377 253.5 379.09 253.5 381.75C253.5 384.41 251.41 386.5 248.75 386.5ZM220.25 396C217.59 396 215.5 393.91 215.5 391.25C215.5 388.59 217.59 386.5 220.25 386.5C222.91 386.5 225 388.59 225 391.25C225 393.91 222.91 396 220.25 396ZM248.75 396C246.09 396 244 393.91 244 391.25C244 388.59 246.09 386.5 248.75 386.5C251.41 386.5 253.5 388.59 253.5 391.25C253.5 393.91 251.41 396 248.75 396ZM239.25 396C236.59 396 234.5 393.91 234.5 391.25C234.5 388.59 236.59 386.5 239.25 386.5C241.91 386.5 244 388.59 244 391.25C244 393.91 241.91 396 239.25 396ZM229.75 396C227.09 396 225 393.91 225 391.25C225 388.59 227.09 386.5 229.75 386.5C232.41 386.5 234.5 388.59 234.5 391.25C234.5 393.91 232.41 396 229.75 396ZM239.25 405.5C236.59 405.5 234.5 403.41 234.5 400.75C234.5 398.09 236.59 396 239.25 396C241.91 396 244 398.09 244 400.75C244 403.41 241.91 405.5 239.25 405.5ZM229.75 405.5C227.09 405.5 225 403.41 225 400.75C225 398.09 227.09 396 229.75 396C232.41 396 234.5 398.09 234.5 400.75C234.5 403.41 232.41 405.5 229.75 405.5ZM220.25 405.5C217.59 405.5 215.5 403.41 215.5 400.75C215.5 398.09 217.59 396 220.25 396C222.91 396 225 398.09 225 400.75C225 403.41 222.91 405.5 220.25 405.5ZM210.75 405.5C208.09 405.5 206 403.41 206 400.75C206 398.09 208.09 396 210.75 396C213.41 396 215.5 398.09 215.5 400.75C215.5 403.41 213.41 405.5 210.75 405.5ZM229.75 415C227.09 415 225 412.91 225 410.25C225 407.59 227.09 405.5 229.75 405.5C232.41 405.5 234.5 407.59 234.5 410.25C234.5 412.91 232.41 415 229.75 415ZM239.25 415C236.59 415 234.5 412.91 234.5 410.25C234.5 407.59 236.59 405.5 239.25 405.5C241.91 405.5 244 407.59 244 410.25C244 412.91 241.91 415 239.25 415ZM220.25 415C217.59 415 215.5 412.91 215.5 410.25C215.5 407.59 217.59 405.5 220.25 405.5C222.91 405.5 225 407.59 225 410.25C225 412.91 222.91 415 220.25 415ZM210.75 415C208.09 415 206 412.91 206 410.25C206 407.59 208.09 405.5 210.75 405.5C213.41 405.5 215.5 407.59 215.5 410.25C215.5 412.91 213.41 415 210.75 415ZM372.25 291.5C369.59 291.5 367.5 289.41 367.5 286.75C367.5 284.09 369.59 282 372.25 282C374.91 282 377 284.09 377 286.75C377 289.41 374.91 291.5 372.25 291.5ZM381.75 291.5C379.09 291.5 377 289.41 377 286.75C377 284.09 379.09 282 381.75 282C384.41 282 386.5 284.09 386.5 286.75C386.5 289.41 384.41 291.5 381.75 291.5ZM362.75 291.5C360.09 291.5 358 289.41 358 286.75C358 284.09 360.09 282 362.75 282C365.41 282 367.5 284.09 367.5 286.75C367.5 289.41 365.41 291.5 362.75 291.5ZM353.25 291.5C350.59 291.5 348.5 289.41 348.5 286.75C348.5 284.09 350.59 282 353.25 282C355.91 282 358 284.09 358 286.75C358 289.41 355.91 291.5 353.25 291.5ZM381.75 301C379.09 301 377 298.91 377 296.25C377 293.59 379.09 291.5 381.75 291.5C384.41 291.5 386.5 293.59 386.5 296.25C386.5 298.91 384.41 301 381.75 301ZM372.25 301C369.59 301 367.5 298.91 367.5 296.25C367.5 293.59 369.59 291.5 372.25 291.5C374.91 291.5 377 293.59 377 296.25C377 298.91 374.91 301 372.25 301ZM362.75 301C360.09 301 358 298.91 358 296.25C358 293.59 360.09 291.5 362.75 291.5C365.41 291.5 367.5 293.59 367.5 296.25C367.5 298.91 365.41 301 362.75 301ZM353.25 301C350.59 301 348.5 298.91 348.5 296.25C348.5 293.59 350.59 291.5 353.25 291.5C355.91 291.5 358 293.59 358 296.25C358 298.91 355.91 301 353.25 301ZM372.25 310.5C369.59 310.5 367.5 308.41 367.5 305.75C367.5 303.09 369.59 301 372.25 301C374.91 301 377 303.09 377 305.75C377 308.41 374.91 310.5 372.25 310.5ZM343.75 310.5C341.09 310.5 339 308.41 339 305.75C339 303.09 341.09 301 343.75 301C346.41 301 348.5 303.09 348.5 305.75C348.5 308.41 346.41 310.5 343.75 310.5ZM353.25 310.5C350.59 310.5 348.5 308.41 348.5 305.75C348.5 303.09 350.59 301 353.25 301C355.91 301 358 303.09 358 305.75C358 308.41 355.91 310.5 353.25 310.5ZM362.75 310.5C360.09 310.5 358 308.41 358 305.75C358 303.09 360.09 301 362.75 301C365.41 301 367.5 303.09 367.5 305.75C367.5 308.41 365.41 310.5 362.75 310.5ZM372.25 320C369.59 320 367.5 317.91 367.5 315.25C367.5 312.59 369.59 310.5 372.25 310.5C374.91 310.5 377 312.59 377 315.25C377 317.91 374.91 320 372.25 320ZM343.75 320C341.09 320 339 317.91 339 315.25C339 312.59 341.09 310.5 343.75 310.5C346.41 310.5 348.5 312.59 348.5 315.25C348.5 317.91 346.41 320 343.75 320ZM353.25 320C350.59 320 348.5 317.91 348.5 315.25C348.5 312.59 350.59 310.5 353.25 310.5C355.91 310.5 358 312.59 358 315.25C358 317.91 355.91 320 353.25 320ZM362.75 320C360.09 320 358 317.91 358 315.25C358 312.59 360.09 310.5 362.75 310.5C365.41 310.5 367.5 312.59 367.5 315.25C367.5 317.91 365.41 320 362.75 320ZM334.25 329.5C331.59 329.5 329.5 327.41 329.5 324.75C329.5 322.09 331.59 320 334.25 320C336.91 320 339 322.09 339 324.75C339 327.41 336.91 329.5 334.25 329.5ZM343.75 329.5C341.09 329.5 339 327.41 339 324.75C339 322.09 341.09 320 343.75 320C346.41 320 348.5 322.09 348.5 324.75C348.5 327.41 346.41 329.5 343.75 329.5ZM362.75 329.5C360.09 329.5 358 327.41 358 324.75C358 322.09 360.09 320 362.75 320C365.41 320 367.5 322.09 367.5 324.75C367.5 327.41 365.41 329.5 362.75 329.5ZM353.25 329.5C350.59 329.5 348.5 327.41 348.5 324.75C348.5 322.09 350.59 320 353.25 320C355.91 320 358 322.09 358 324.75C358 327.41 355.91 329.5 353.25 329.5ZM334.25 339C331.59 339 329.5 336.91 329.5 334.25C329.5 331.59 331.59 329.5 334.25 329.5C336.91 329.5 339 331.59 339 334.25C339 336.91 336.91 339 334.25 339ZM343.75 339C341.09 339 339 336.91 339 334.25C339 331.59 341.09 329.5 343.75 329.5C346.41 329.5 348.5 331.59 348.5 334.25C348.5 336.91 346.41 339 343.75 339ZM362.75 339C360.09 339 358 336.91 358 334.25C358 331.59 360.09 329.5 362.75 329.5C365.41 329.5 367.5 331.59 367.5 334.25C367.5 336.91 365.41 339 362.75 339ZM353.25 339C350.59 339 348.5 336.91 348.5 334.25C348.5 331.59 350.59 329.5 353.25 329.5C355.91 329.5 358 331.59 358 334.25C358 336.91 355.91 339 353.25 339ZM324.75 348.5C322.09 348.5 320 346.41 320 343.75C320 341.09 322.09 339 324.75 339C327.41 339 329.5 341.09 329.5 343.75C329.5 346.41 327.41 348.5 324.75 348.5ZM334.25 348.5C331.59 348.5 329.5 346.41 329.5 343.75C329.5 341.09 331.59 339 334.25 339C336.91 339 339 341.09 339 343.75C339 346.41 336.91 348.5 334.25 348.5ZM353.25 348.5C350.59 348.5 348.5 346.41 348.5 343.75C348.5 341.09 350.59 339 353.25 339C355.91 339 358 341.09 358 343.75C358 346.41 355.91 348.5 353.25 348.5ZM343.75 348.5C341.09 348.5 339 346.41 339 343.75C339 341.09 341.09 339 343.75 339C346.41 339 348.5 341.09 348.5 343.75C348.5 346.41 346.41 348.5 343.75 348.5ZM324.75 358C322.09 358 320 355.91 320 353.25C320 350.59 322.09 348.5 324.75 348.5C327.41 348.5 329.5 350.59 329.5 353.25C329.5 355.91 327.41 358 324.75 358ZM334.25 358C331.59 358 329.5 355.91 329.5 353.25C329.5 350.59 331.59 348.5 334.25 348.5C336.91 348.5 339 350.59 339 353.25C339 355.91 336.91 358 334.25 358ZM353.25 358C350.59 358 348.5 355.91 348.5 353.25C348.5 350.59 350.59 348.5 353.25 348.5C355.91 348.5 358 350.59 358 353.25C358 355.91 355.91 358 353.25 358ZM343.75 358C341.09 358 339 355.91 339 353.25C339 350.59 341.09 348.5 343.75 348.5C346.41 348.5 348.5 350.59 348.5 353.25C348.5 355.91 346.41 358 343.75 358ZM343.75 367.5C341.09 367.5 339 365.41 339 362.75C339 360.09 341.09 358 343.75 358C346.41 358 348.5 360.09 348.5 362.75C348.5 365.41 346.41 367.5 343.75 367.5ZM324.75 367.5C322.09 367.5 320 365.41 320 362.75C320 360.09 322.09 358 324.75 358C327.41 358 329.5 360.09 329.5 362.75C329.5 365.41 327.41 367.5 324.75 367.5ZM315.25 367.5C312.59 367.5 310.5 365.41 310.5 362.75C310.5 360.09 312.59 358 315.25 358C317.91 358 320 360.09 320 362.75C320 365.41 317.91 367.5 315.25 367.5ZM334.25 367.5C331.59 367.5 329.5 365.41 329.5 362.75C329.5 360.09 331.59 358 334.25 358C336.91 358 339 360.09 339 362.75C339 365.41 336.91 367.5 334.25 367.5ZM315.25 377C312.59 377 310.5 374.91 310.5 372.25C310.5 369.59 312.59 367.5 315.25 367.5C317.91 367.5 320 369.59 320 372.25C320 374.91 317.91 377 315.25 377ZM334.25 377C331.59 377 329.5 374.91 329.5 372.25C329.5 369.59 331.59 367.5 334.25 367.5C336.91 367.5 339 369.59 339 372.25C339 374.91 336.91 377 334.25 377ZM343.75 377C341.09 377 339 374.91 339 372.25C339 369.59 341.09 367.5 343.75 367.5C346.41 367.5 348.5 369.59 348.5 372.25C348.5 374.91 346.41 377 343.75 377ZM324.75 377C322.09 377 320 374.91 320 372.25C320 369.59 322.09 367.5 324.75 367.5C327.41 367.5 329.5 369.59 329.5 372.25C329.5 374.91 327.41 377 324.75 377ZM324.75 386.5C322.09 386.5 320 384.41 320 381.75C320 379.09 322.09 377 324.75 377C327.41 377 329.5 379.09 329.5 381.75C329.5 384.41 327.41 386.5 324.75 386.5ZM305.75 386.5C303.09 386.5 301 384.41 301 381.75C301 379.09 303.09 377 305.75 377C308.41 377 310.5 379.09 310.5 381.75C310.5 384.41 308.41 386.5 305.75 386.5ZM315.25 386.5C312.59 386.5 310.5 384.41 310.5 381.75C310.5 379.09 312.59 377 315.25 377C317.91 377 320 379.09 320 381.75C320 384.41 317.91 386.5 315.25 386.5ZM334.25 386.5C331.59 386.5 329.5 384.41 329.5 381.75C329.5 379.09 331.59 377 334.25 377C336.91 377 339 379.09 339 381.75C339 384.41 336.91 386.5 334.25 386.5ZM305.75 396C303.09 396 301 393.91 301 391.25C301 388.59 303.09 386.5 305.75 386.5C308.41 386.5 310.5 388.59 310.5 391.25C310.5 393.91 308.41 396 305.75 396ZM334.25 396C331.59 396 329.5 393.91 329.5 391.25C329.5 388.59 331.59 386.5 334.25 386.5C336.91 386.5 339 388.59 339 391.25C339 393.91 336.91 396 334.25 396ZM324.75 396C322.09 396 320 393.91 320 391.25C320 388.59 322.09 386.5 324.75 386.5C327.41 386.5 329.5 388.59 329.5 391.25C329.5 393.91 327.41 396 324.75 396ZM315.25 396C312.59 396 310.5 393.91 310.5 391.25C310.5 388.59 312.59 386.5 315.25 386.5C317.91 386.5 320 388.59 320 391.25C320 393.91 317.91 396 315.25 396ZM324.75 405.5C322.09 405.5 320 403.41 320 400.75C320 398.09 322.09 396 324.75 396C327.41 396 329.5 398.09 329.5 400.75C329.5 403.41 327.41 405.5 324.75 405.5ZM315.25 405.5C312.59 405.5 310.5 403.41 310.5 400.75C310.5 398.09 312.59 396 315.25 396C317.91 396 320 398.09 320 400.75C320 403.41 317.91 405.5 315.25 405.5ZM305.75 405.5C303.09 405.5 301 403.41 301 400.75C301 398.09 303.09 396 305.75 396C308.41 396 310.5 398.09 310.5 400.75C310.5 403.41 308.41 405.5 305.75 405.5ZM296.25 405.5C293.59 405.5 291.5 403.41 291.5 400.75C291.5 398.09 293.59 396 296.25 396C298.91 396 301 398.09 301 400.75C301 403.41 298.91 405.5 296.25 405.5ZM315.25 415C312.59 415 310.5 412.91 310.5 410.25C310.5 407.59 312.59 405.5 315.25 405.5C317.91 405.5 320 407.59 320 410.25C320 412.91 317.91 415 315.25 415ZM324.75 415C322.09 415 320 412.91 320 410.25C320 407.59 322.09 405.5 324.75 405.5C327.41 405.5 329.5 407.59 329.5 410.25C329.5 412.91 327.41 415 324.75 415ZM305.75 415C303.09 415 301 412.91 301 410.25C301 407.59 303.09 405.5 305.75 405.5C308.41 405.5 310.5 407.59 310.5 410.25C310.5 412.91 308.41 415 305.75 415ZM296.25 415C293.59 415 291.5 412.91 291.5 410.25C291.5 407.59 293.59 405.5 296.25 405.5C298.91 405.5 301 407.59 301 410.25C301 412.91 298.91 415 296.25 415ZM457.75 291.5C455.09 291.5 453 289.41 453 286.75C453 284.09 455.09 282 457.75 282C460.41 282 462.5 284.09 462.5 286.75C462.5 289.41 460.41 291.5 457.75 291.5ZM467.25 291.5C464.59 291.5 462.5 289.41 462.5 286.75C462.5 284.09 464.59 282 467.25 282C469.91 282 472 284.09 472 286.75C472 289.41 469.91 291.5 467.25 291.5ZM448.25 291.5C445.59 291.5 443.5 289.41 443.5 286.75C443.5 284.09 445.59 282 448.25 282C450.91 282 453 284.09 453 286.75C453 289.41 450.91 291.5 448.25 291.5ZM438.75 291.5C436.09 291.5 434 289.41 434 286.75C434 284.09 436.09 282 438.75 282C441.41 282 443.5 284.09 443.5 286.75C443.5 289.41 441.41 291.5 438.75 291.5ZM467.25 301C464.59 301 462.5 298.91 462.5 296.25C462.5 293.59 464.59 291.5 467.25 291.5C469.91 291.5 472 293.59 472 296.25C472 298.91 469.91 301 467.25 301ZM457.75 301C455.09 301 453 298.91 453 296.25C453 293.59 455.09 291.5 457.75 291.5C460.41 291.5 462.5 293.59 462.5 296.25C462.5 298.91 460.41 301 457.75 301ZM448.25 301C445.59 301 443.5 298.91 443.5 296.25C443.5 293.59 445.59 291.5 448.25 291.5C450.91 291.5 453 293.59 453 296.25C453 298.91 450.91 301 448.25 301ZM438.75 301C436.09 301 434 298.91 434 296.25C434 293.59 436.09 291.5 438.75 291.5C441.41 291.5 443.5 293.59 443.5 296.25C443.5 298.91 441.41 301 438.75 301ZM457.75 310.5C455.09 310.5 453 308.41 453 305.75C453 303.09 455.09 301 457.75 301C460.41 301 462.5 303.09 462.5 305.75C462.5 308.41 460.41 310.5 457.75 310.5ZM429.25 310.5C426.59 310.5 424.5 308.41 424.5 305.75C424.5 303.09 426.59 301 429.25 301C431.91 301 434 303.09 434 305.75C434 308.41 431.91 310.5 429.25 310.5ZM438.75 310.5C436.09 310.5 434 308.41 434 305.75C434 303.09 436.09 301 438.75 301C441.41 301 443.5 303.09 443.5 305.75C443.5 308.41 441.41 310.5 438.75 310.5ZM448.25 310.5C445.59 310.5 443.5 308.41 443.5 305.75C443.5 303.09 445.59 301 448.25 301C450.91 301 453 303.09 453 305.75C453 308.41 450.91 310.5 448.25 310.5ZM457.75 320C455.09 320 453 317.91 453 315.25C453 312.59 455.09 310.5 457.75 310.5C460.41 310.5 462.5 312.59 462.5 315.25C462.5 317.91 460.41 320 457.75 320ZM429.25 320C426.59 320 424.5 317.91 424.5 315.25C424.5 312.59 426.59 310.5 429.25 310.5C431.91 310.5 434 312.59 434 315.25C434 317.91 431.91 320 429.25 320ZM438.75 320C436.09 320 434 317.91 434 315.25C434 312.59 436.09 310.5 438.75 310.5C441.41 310.5 443.5 312.59 443.5 315.25C443.5 317.91 441.41 320 438.75 320ZM448.25 320C445.59 320 443.5 317.91 443.5 315.25C443.5 312.59 445.59 310.5 448.25 310.5C450.91 310.5 453 312.59 453 315.25C453 317.91 450.91 320 448.25 320ZM419.75 329.5C417.09 329.5 415 327.41 415 324.75C415 322.09 417.09 320 419.75 320C422.41 320 424.5 322.09 424.5 324.75C424.5 327.41 422.41 329.5 419.75 329.5ZM429.25 329.5C426.59 329.5 424.5 327.41 424.5 324.75C424.5 322.09 426.59 320 429.25 320C431.91 320 434 322.09 434 324.75C434 327.41 431.91 329.5 429.25 329.5ZM448.25 329.5C445.59 329.5 443.5 327.41 443.5 324.75C443.5 322.09 445.59 320 448.25 320C450.91 320 453 322.09 453 324.75C453 327.41 450.91 329.5 448.25 329.5ZM438.75 329.5C436.09 329.5 434 327.41 434 324.75C434 322.09 436.09 320 438.75 320C441.41 320 443.5 322.09 443.5 324.75C443.5 327.41 441.41 329.5 438.75 329.5ZM419.75 339C417.09 339 415 336.91 415 334.25C415 331.59 417.09 329.5 419.75 329.5C422.41 329.5 424.5 331.59 424.5 334.25C424.5 336.91 422.41 339 419.75 339ZM429.25 339C426.59 339 424.5 336.91 424.5 334.25C424.5 331.59 426.59 329.5 429.25 329.5C431.91 329.5 434 331.59 434 334.25C434 336.91 431.91 339 429.25 339ZM448.25 339C445.59 339 443.5 336.91 443.5 334.25C443.5 331.59 445.59 329.5 448.25 329.5C450.91 329.5 453 331.59 453 334.25C453 336.91 450.91 339 448.25 339ZM438.75 339C436.09 339 434 336.91 434 334.25C434 331.59 436.09 329.5 438.75 329.5C441.41 329.5 443.5 331.59 443.5 334.25C443.5 336.91 441.41 339 438.75 339ZM410.25 348.5C407.59 348.5 405.5 346.41 405.5 343.75C405.5 341.09 407.59 339 410.25 339C412.91 339 415 341.09 415 343.75C415 346.41 412.91 348.5 410.25 348.5ZM419.75 348.5C417.09 348.5 415 346.41 415 343.75C415 341.09 417.09 339 419.75 339C422.41 339 424.5 341.09 424.5 343.75C424.5 346.41 422.41 348.5 419.75 348.5ZM438.75 348.5C436.09 348.5 434 346.41 434 343.75C434 341.09 436.09 339 438.75 339C441.41 339 443.5 341.09 443.5 343.75C443.5 346.41 441.41 348.5 438.75 348.5ZM429.25 348.5C426.59 348.5 424.5 346.41 424.5 343.75C424.5 341.09 426.59 339 429.25 339C431.91 339 434 341.09 434 343.75C434 346.41 431.91 348.5 429.25 348.5ZM410.25 358C407.59 358 405.5 355.91 405.5 353.25C405.5 350.59 407.59 348.5 410.25 348.5C412.91 348.5 415 350.59 415 353.25C415 355.91 412.91 358 410.25 358ZM419.75 358C417.09 358 415 355.91 415 353.25C415 350.59 417.09 348.5 419.75 348.5C422.41 348.5 424.5 350.59 424.5 353.25C424.5 355.91 422.41 358 419.75 358ZM438.75 358C436.09 358 434 355.91 434 353.25C434 350.59 436.09 348.5 438.75 348.5C441.41 348.5 443.5 350.59 443.5 353.25C443.5 355.91 441.41 358 438.75 358ZM429.25 358C426.59 358 424.5 355.91 424.5 353.25C424.5 350.59 426.59 348.5 429.25 348.5C431.91 348.5 434 350.59 434 353.25C434 355.91 431.91 358 429.25 358ZM429.25 367.5C426.59 367.5 424.5 365.41 424.5 362.75C424.5 360.09 426.59 358 429.25 358C431.91 358 434 360.09 434 362.75C434 365.41 431.91 367.5 429.25 367.5ZM410.25 367.5C407.59 367.5 405.5 365.41 405.5 362.75C405.5 360.09 407.59 358 410.25 358C412.91 358 415 360.09 415 362.75C415 365.41 412.91 367.5 410.25 367.5ZM400.75 367.5C398.09 367.5 396 365.41 396 362.75C396 360.09 398.09 358 400.75 358C403.41 358 405.5 360.09 405.5 362.75C405.5 365.41 403.41 367.5 400.75 367.5ZM419.75 367.5C417.09 367.5 415 365.41 415 362.75C415 360.09 417.09 358 419.75 358C422.41 358 424.5 360.09 424.5 362.75C424.5 365.41 422.41 367.5 419.75 367.5ZM400.75 377C398.09 377 396 374.91 396 372.25C396 369.59 398.09 367.5 400.75 367.5C403.41 367.5 405.5 369.59 405.5 372.25C405.5 374.91 403.41 377 400.75 377ZM419.75 377C417.09 377 415 374.91 415 372.25C415 369.59 417.09 367.5 419.75 367.5C422.41 367.5 424.5 369.59 424.5 372.25C424.5 374.91 422.41 377 419.75 377ZM429.25 377C426.59 377 424.5 374.91 424.5 372.25C424.5 369.59 426.59 367.5 429.25 367.5C431.91 367.5 434 369.59 434 372.25C434 374.91 431.91 377 429.25 377ZM410.25 377C407.59 377 405.5 374.91 405.5 372.25C405.5 369.59 407.59 367.5 410.25 367.5C412.91 367.5 415 369.59 415 372.25C415 374.91 412.91 377 410.25 377ZM410.25 386.5C407.59 386.5 405.5 384.41 405.5 381.75C405.5 379.09 407.59 377 410.25 377C412.91 377 415 379.09 415 381.75C415 384.41 412.91 386.5 410.25 386.5ZM391.25 386.5C388.59 386.5 386.5 384.41 386.5 381.75C386.5 379.09 388.59 377 391.25 377C393.91 377 396 379.09 396 381.75C396 384.41 393.91 386.5 391.25 386.5ZM400.75 386.5C398.09 386.5 396 384.41 396 381.75C396 379.09 398.09 377 400.75 377C403.41 377 405.5 379.09 405.5 381.75C405.5 384.41 403.41 386.5 400.75 386.5ZM419.75 386.5C417.09 386.5 415 384.41 415 381.75C415 379.09 417.09 377 419.75 377C422.41 377 424.5 379.09 424.5 381.75C424.5 384.41 422.41 386.5 419.75 386.5ZM391.25 396C388.59 396 386.5 393.91 386.5 391.25C386.5 388.59 388.59 386.5 391.25 386.5C393.91 386.5 396 388.59 396 391.25C396 393.91 393.91 396 391.25 396ZM419.75 396C417.09 396 415 393.91 415 391.25C415 388.59 417.09 386.5 419.75 386.5C422.41 386.5 424.5 388.59 424.5 391.25C424.5 393.91 422.41 396 419.75 396ZM410.25 396C407.59 396 405.5 393.91 405.5 391.25C405.5 388.59 407.59 386.5 410.25 386.5C412.91 386.5 415 388.59 415 391.25C415 393.91 412.91 396 410.25 396ZM400.75 396C398.09 396 396 393.91 396 391.25C396 388.59 398.09 386.5 400.75 386.5C403.41 386.5 405.5 388.59 405.5 391.25C405.5 393.91 403.41 396 400.75 396ZM410.25 405.5C407.59 405.5 405.5 403.41 405.5 400.75C405.5 398.09 407.59 396 410.25 396C412.91 396 415 398.09 415 400.75C415 403.41 412.91 405.5 410.25 405.5ZM400.75 405.5C398.09 405.5 396 403.41 396 400.75C396 398.09 398.09 396 400.75 396C403.41 396 405.5 398.09 405.5 400.75C405.5 403.41 403.41 405.5 400.75 405.5ZM391.25 405.5C388.59 405.5 386.5 403.41 386.5 400.75C386.5 398.09 388.59 396 391.25 396C393.91 396 396 398.09 396 400.75C396 403.41 393.91 405.5 391.25 405.5ZM381.75 405.5C379.09 405.5 377 403.41 377 400.75C377 398.09 379.09 396 381.75 396C384.41 396 386.5 398.09 386.5 400.75C386.5 403.41 384.41 405.5 381.75 405.5ZM400.75 415C398.09 415 396 412.91 396 410.25C396 407.59 398.09 405.5 400.75 405.5C403.41 405.5 405.5 407.59 405.5 410.25C405.5 412.91 403.41 415 400.75 415ZM410.25 415C407.59 415 405.5 412.91 405.5 410.25C405.5 407.59 407.59 405.5 410.25 405.5C412.91 405.5 415 407.59 415 410.25C415 412.91 412.91 415 410.25 415ZM391.25 415C388.59 415 386.5 412.91 386.5 410.25C386.5 407.59 388.59 405.5 391.25 405.5C393.91 405.5 396 407.59 396 410.25C396 412.91 393.91 415 391.25 415ZM381.75 415C379.09 415 377 412.91 377 410.25C377 407.59 379.09 405.5 381.75 405.5C384.41 405.5 386.5 407.59 386.5 410.25C386.5 412.91 384.41 415 381.75 415Z" fill="#FFFFE2"/>
<line x1="92.5" y1="-2.18557e-08" x2="92.5" y2="688" stroke="black" stroke-dasharray="7 7"/>
<line x1="596.5" y1="-2.18557e-08" x2="596.5" y2="688" stroke="black" stroke-dasharray="7 7"/>
<line y1="111.5" x2="688" y2="111.5" stroke="black" stroke-dasharray="7 7"/>
<line y1="575.5" x2="688" y2="575.5" stroke="black" stroke-dasharray="7 7"/>
</g>
<defs>
<filter id="filter0_d_49_3" x="15" y="35" width="657" height="626" filterUnits="userSpaceOnUse" color-interpolation-filters="sRGB">
<feFlood flood-opacity="0" result="BackgroundImageFix"/>
<feColorMatrix in="SourceAlpha" type="matrix" values="0 0 0 0 0 0 0 0 0 0 0 0 0 0 0 0 0 0 127 0" result="hardAlpha"/>
<feOffset dy="4"/>
<feGaussianBlur stdDeviation="20"/>
<feComposite in2="hardAlpha" operator="out"/>
<feColorMatrix type="matrix" values="0 0 0 0 0 0 0 0 0 0 0 0 0 0 0 0 0 0 0.25 0"/>
<feBlend mode="normal" in2="BackgroundImageFix" result="effect1_dropShadow_49_3"/>
<feBlend mode="normal" in="SourceGraphic" in2="effect1_dropShadow_49_3" result="shape"/>
</filter>
<clipPath id="clip0_49_3">
<rect width="688" height="688" fill="white"/>
</clipPath>
</defs>
</svg>
