<svg width="376" height="221" viewBox="0 0 376 221" fill="none" xmlns="http://www.w3.org/2000/svg">
<path d="M133.875 15.75C129.465 15.75 126 12.285 126 7.875C126 3.465 129.465 0 133.875 0C138.285 0 141.75 3.465 141.75 7.875C141.75 12.285 138.285 15.75 133.875 15.75ZM149.625 15.75C145.215 15.75 141.75 12.285 141.75 7.875C141.75 3.465 145.215 0 149.625 0C154.035 0 157.5 3.465 157.5 7.875C157.5 12.285 154.035 15.75 149.625 15.75ZM118.125 15.75C113.715 15.75 110.25 12.285 110.25 7.875C110.25 3.465 113.715 0 118.125 0C122.535 0 126 3.465 126 7.875C126 12.285 122.535 15.75 118.125 15.75ZM102.375 15.75C97.965 15.75 94.5 12.285 94.5 7.875C94.5 3.465 97.965 0 102.375 0C106.785 0 110.25 3.465 110.25 7.875C110.25 12.285 106.785 15.75 102.375 15.75ZM149.625 31.5C145.215 31.5 141.75 28.035 141.75 23.625C141.75 19.215 145.215 15.75 149.625 15.75C154.035 15.75 157.5 19.215 157.5 23.625C157.5 28.035 154.035 31.5 149.625 31.5ZM133.875 31.5C129.465 31.5 126 28.035 126 23.625C126 19.215 129.465 15.75 133.875 15.75C138.285 15.75 141.75 19.215 141.75 23.625C141.75 28.035 138.285 31.5 133.875 31.5ZM118.125 31.5C113.715 31.5 110.25 28.035 110.25 23.625C110.25 19.215 113.715 15.75 118.125 15.75C122.535 15.75 126 19.215 126 23.625C126 28.035 122.535 31.5 118.125 31.5ZM102.375 31.5C97.965 31.5 94.5 28.035 94.5 23.625C94.5 19.215 97.965 15.75 102.375 15.75C106.785 15.75 110.25 19.215 110.25 23.625C110.25 28.035 106.785 31.5 102.375 31.5ZM133.875 47.25C129.465 47.25 126 43.785 126 39.375C126 34.965 129.465 31.5 133.875 31.5C138.285 31.5 141.75 34.965 141.75 39.375C141.75 43.785 138.285 47.25 133.875 47.25ZM86.625 47.25C82.215 47.25 78.75 43.785 78.75 39.375C78.75 34.965 82.215 31.5 86.625 31.5C91.035 31.5 94.5 34.965 94.5 39.375C94.5 43.785 91.035 47.25 86.625 47.25ZM102.375 47.25C97.965 47.25 94.5 43.785 94.5 39.375C94.5 34.965 97.965 31.5 102.375 31.5C106.785 31.5 110.25 34.965 110.25 39.375C110.25 43.785 106.785 47.25 102.375 47.25ZM118.125 47.25C113.715 47.25 110.25 43.785 110.25 39.375C110.25 34.965 113.715 31.5 118.125 31.5C122.535 31.5 126 34.965 126 39.375C126 43.785 122.535 47.25 118.125 47.25ZM133.875 63C129.465 63 126 59.535 126 55.125C126 50.715 129.465 47.25 133.875 47.25C138.285 47.25 141.75 50.715 141.75 55.125C141.75 59.535 138.285 63 133.875 63ZM86.625 63C82.215 63 78.75 59.535 78.75 55.125C78.75 50.715 82.215 47.25 86.625 47.25C91.035 47.25 94.5 50.715 94.5 55.125C94.5 59.535 91.035 63 86.625 63ZM102.375 63C97.965 63 94.5 59.535 94.5 55.125C94.5 50.715 97.965 47.25 102.375 47.25C106.785 47.25 110.25 50.715 110.25 55.125C110.25 59.535 106.785 63 102.375 63ZM118.125 63C113.715 63 110.25 59.535 110.25 55.125C110.25 50.715 113.715 47.25 118.125 47.25C122.535 47.25 126 50.715 126 55.125C126 59.535 122.535 63 118.125 63ZM70.875 78.75C66.465 78.75 63 75.285 63 70.875C63 66.465 66.465 63 70.875 63C75.285 63 78.75 66.465 78.75 70.875C78.75 75.285 75.285 78.75 70.875 78.75ZM86.625 78.75C82.215 78.75 78.75 75.285 78.75 70.875C78.75 66.465 82.215 63 86.625 63C91.035 63 94.5 66.465 94.5 70.875C94.5 75.285 91.035 78.75 86.625 78.75ZM118.125 78.75C113.715 78.75 110.25 75.285 110.25 70.875C110.25 66.465 113.715 63 118.125 63C122.535 63 126 66.465 126 70.875C126 75.285 122.535 78.75 118.125 78.75ZM102.375 78.75C97.965 78.75 94.5 75.285 94.5 70.875C94.5 66.465 97.965 63 102.375 63C106.785 63 110.25 66.465 110.25 70.875C110.25 75.285 106.785 78.75 102.375 78.75ZM70.875 94.5C66.465 94.5 63 91.035 63 86.625C63 82.215 66.465 78.75 70.875 78.75C75.285 78.75 78.75 82.215 78.75 86.625C78.75 91.035 75.285 94.5 70.875 94.5ZM86.625 94.5C82.215 94.5 78.75 91.035 78.75 86.625C78.75 82.215 82.215 78.75 86.625 78.75C91.035 78.75 94.5 82.215 94.5 86.625C94.5 91.035 91.035 94.5 86.625 94.5ZM118.125 94.5C113.715 94.5 110.25 91.035 110.25 86.625C110.25 82.215 113.715 78.75 118.125 78.75C122.535 78.75 126 82.215 126 86.625C126 91.035 122.535 94.5 118.125 94.5ZM102.375 94.5C97.965 94.5 94.5 91.035 94.5 86.625C94.5 82.215 97.965 78.75 102.375 78.75C106.785 78.75 110.25 82.215 110.25 86.625C110.25 91.035 106.785 94.5 102.375 94.5ZM55.125 110.25C50.715 110.25 47.25 106.785 47.25 102.375C47.25 97.965 50.715 94.5 55.125 94.5C59.535 94.5 63 97.965 63 102.375C63 106.785 59.535 110.25 55.125 110.25ZM70.875 110.25C66.465 110.25 63 106.785 63 102.375C63 97.965 66.465 94.5 70.875 94.5C75.285 94.5 78.75 97.965 78.75 102.375C78.75 106.785 75.285 110.25 70.875 110.25ZM102.375 110.25C97.965 110.25 94.5 106.785 94.5 102.375C94.5 97.965 97.965 94.5 102.375 94.5C106.785 94.5 110.25 97.965 110.25 102.375C110.25 106.785 106.785 110.25 102.375 110.25ZM86.625 110.25C82.215 110.25 78.75 106.785 78.75 102.375C78.75 97.965 82.215 94.5 86.625 94.5C91.035 94.5 94.5 97.965 94.5 102.375C94.5 106.785 91.035 110.25 86.625 110.25ZM55.125 126C50.715 126 47.25 122.535 47.25 118.125C47.25 113.715 50.715 110.25 55.125 110.25C59.535 110.25 63 113.715 63 118.125C63 122.535 59.535 126 55.125 126ZM70.875 126C66.465 126 63 122.535 63 118.125C63 113.715 66.465 110.25 70.875 110.25C75.285 110.25 78.75 113.715 78.75 118.125C78.75 122.535 75.285 126 70.875 126ZM102.375 126C97.965 126 94.5 122.535 94.5 118.125C94.5 113.715 97.965 110.25 102.375 110.25C106.785 110.25 110.25 113.715 110.25 118.125C110.25 122.535 106.785 126 102.375 126ZM86.625 126C82.215 126 78.75 122.535 78.75 118.125C78.75 113.715 82.215 110.25 86.625 110.25C91.035 110.25 94.5 113.715 94.5 118.125C94.5 122.535 91.035 126 86.625 126ZM86.625 141.75C82.215 141.75 78.75 138.285 78.75 133.875C78.75 129.465 82.215 126 86.625 126C91.035 126 94.5 129.465 94.5 133.875C94.5 138.285 91.035 141.75 86.625 141.75ZM55.125 141.75C50.715 141.75 47.25 138.285 47.25 133.875C47.25 129.465 50.715 126 55.125 126C59.535 126 63 129.465 63 133.875C63 138.285 59.535 141.75 55.125 141.75ZM39.375 141.75C34.965 141.75 31.5 138.285 31.5 133.875C31.5 129.465 34.965 126 39.375 126C43.785 126 47.25 129.465 47.25 133.875C47.25 138.285 43.785 141.75 39.375 141.75ZM70.875 141.75C66.465 141.75 63 138.285 63 133.875C63 129.465 66.465 126 70.875 126C75.285 126 78.75 129.465 78.75 133.875C78.75 138.285 75.285 141.75 70.875 141.75ZM39.375 157.5C34.965 157.5 31.5 154.035 31.5 149.625C31.5 145.215 34.965 141.75 39.375 141.75C43.785 141.75 47.25 145.215 47.25 149.625C47.25 154.035 43.785 157.5 39.375 157.5ZM70.875 157.5C66.465 157.5 63 154.035 63 149.625C63 145.215 66.465 141.75 70.875 141.75C75.285 141.75 78.75 145.215 78.75 149.625C78.75 154.035 75.285 157.5 70.875 157.5ZM86.625 157.5C82.215 157.5 78.75 154.035 78.75 149.625C78.75 145.215 82.215 141.75 86.625 141.75C91.035 141.75 94.5 145.215 94.5 149.625C94.5 154.035 91.035 157.5 86.625 157.5ZM55.125 157.5C50.715 157.5 47.25 154.035 47.25 149.625C47.25 145.215 50.715 141.75 55.125 141.75C59.535 141.75 63 145.215 63 149.625C63 154.035 59.535 157.5 55.125 157.5ZM55.125 173.25C50.715 173.25 47.25 169.785 47.25 165.375C47.25 160.965 50.715 157.5 55.125 157.5C59.535 157.5 63 160.965 63 165.375C63 169.785 59.535 173.25 55.125 173.25ZM23.625 173.25C19.215 173.25 15.75 169.785 15.75 165.375C15.75 160.965 19.215 157.5 23.625 157.5C28.035 157.5 31.5 160.965 31.5 165.375C31.5 169.785 28.035 173.25 23.625 173.25ZM39.375 173.25C34.965 173.25 31.5 169.785 31.5 165.375C31.5 160.965 34.965 157.5 39.375 157.5C43.785 157.5 47.25 160.965 47.25 165.375C47.25 169.785 43.785 173.25 39.375 173.25ZM70.875 173.25C66.465 173.25 63 169.785 63 165.375C63 160.965 66.465 157.5 70.875 157.5C75.285 157.5 78.75 160.965 78.75 165.375C78.75 169.785 75.285 173.25 70.875 173.25ZM23.625 189C19.215 189 15.75 185.535 15.75 181.125C15.75 176.715 19.215 173.25 23.625 173.25C28.035 173.25 31.5 176.715 31.5 181.125C31.5 185.535 28.035 189 23.625 189ZM70.875 189C66.465 189 63 185.535 63 181.125C63 176.715 66.465 173.25 70.875 173.25C75.285 173.25 78.75 176.715 78.75 181.125C78.75 185.535 75.285 189 70.875 189ZM55.125 189C50.715 189 47.25 185.535 47.25 181.125C47.25 176.715 50.715 173.25 55.125 173.25C59.535 173.25 63 176.715 63 181.125C63 185.535 59.535 189 55.125 189ZM39.375 189C34.965 189 31.5 185.535 31.5 181.125C31.5 176.715 34.965 173.25 39.375 173.25C43.785 173.25 47.25 176.715 47.25 181.125C47.25 185.535 43.785 189 39.375 189ZM55.125 204.75C50.715 204.75 47.25 201.285 47.25 196.875C47.25 192.465 50.715 189 55.125 189C59.535 189 63 192.465 63 196.875C63 201.285 59.535 204.75 55.125 204.75ZM39.375 204.75C34.965 204.75 31.5 201.285 31.5 196.875C31.5 192.465 34.965 189 39.375 189C43.785 189 47.25 192.465 47.25 196.875C47.25 201.285 43.785 204.75 39.375 204.75ZM23.625 204.75C19.215 204.75 15.75 201.285 15.75 196.875C15.75 192.465 19.215 189 23.625 189C28.035 189 31.5 192.465 31.5 196.875C31.5 201.285 28.035 204.75 23.625 204.75ZM7.875 204.75C3.465 204.75 0 201.285 0 196.875C0 192.465 3.465 189 7.875 189C12.285 189 15.75 192.465 15.75 196.875C15.75 201.285 12.285 204.75 7.875 204.75ZM39.375 220.5C34.965 220.5 31.5 217.035 31.5 212.625C31.5 208.215 34.965 204.75 39.375 204.75C43.785 204.75 47.25 208.215 47.25 212.625C47.25 217.035 43.785 220.5 39.375 220.5ZM55.125 220.5C50.715 220.5 47.25 217.035 47.25 212.625C47.25 208.215 50.715 204.75 55.125 204.75C59.535 204.75 63 208.215 63 212.625C63 217.035 59.535 220.5 55.125 220.5ZM23.625 220.5C19.215 220.5 15.75 217.035 15.75 212.625C15.75 208.215 19.215 204.75 23.625 204.75C28.035 204.75 31.5 208.215 31.5 212.625C31.5 217.035 28.035 220.5 23.625 220.5ZM7.875 220.5C3.465 220.5 0 217.035 0 212.625C0 208.215 3.465 204.75 7.875 204.75C12.285 204.75 15.75 208.215 15.75 212.625C15.75 217.035 12.285 220.5 7.875 220.5ZM242.865 15.75C238.455 15.75 234.99 12.285 234.99 7.875C234.99 3.465 238.455 0 242.865 0C247.275 0 250.74 3.465 250.74 7.875C250.74 12.285 247.275 15.75 242.865 15.75ZM258.615 15.75C254.205 15.75 250.74 12.285 250.74 7.875C250.74 3.465 254.205 0 258.615 0C263.025 0 266.49 3.465 266.49 7.875C266.49 12.285 263.025 15.75 258.615 15.75ZM227.115 15.75C222.705 15.75 219.24 12.285 219.24 7.875C219.24 3.465 222.705 0 227.115 0C231.525 0 234.99 3.465 234.99 7.875C234.99 12.285 231.525 15.75 227.115 15.75ZM211.365 15.75C206.955 15.75 203.49 12.285 203.49 7.875C203.49 3.465 206.955 0 211.365 0C215.775 0 219.24 3.465 219.24 7.875C219.24 12.285 215.775 15.75 211.365 15.75ZM258.615 31.5C254.205 31.5 250.74 28.035 250.74 23.625C250.74 19.215 254.205 15.75 258.615 15.75C263.025 15.75 266.49 19.215 266.49 23.625C266.49 28.035 263.025 31.5 258.615 31.5ZM242.865 31.5C238.455 31.5 234.99 28.035 234.99 23.625C234.99 19.215 238.455 15.75 242.865 15.75C247.275 15.75 250.74 19.215 250.74 23.625C250.74 28.035 247.275 31.5 242.865 31.5ZM227.115 31.5C222.705 31.5 219.24 28.035 219.24 23.625C219.24 19.215 222.705 15.75 227.115 15.75C231.525 15.75 234.99 19.215 234.99 23.625C234.99 28.035 231.525 31.5 227.115 31.5ZM211.365 31.5C206.955 31.5 203.49 28.035 203.49 23.625C203.49 19.215 206.955 15.75 211.365 15.75C215.775 15.75 219.24 19.215 219.24 23.625C219.24 28.035 215.775 31.5 211.365 31.5ZM242.865 47.25C238.455 47.25 234.99 43.785 234.99 39.375C234.99 34.965 238.455 31.5 242.865 31.5C247.275 31.5 250.74 34.965 250.74 39.375C250.74 43.785 247.275 47.25 242.865 47.25ZM195.615 47.25C191.205 47.25 187.74 43.785 187.74 39.375C187.74 34.965 191.205 31.5 195.615 31.5C200.025 31.5 203.49 34.965 203.49 39.375C203.49 43.785 200.025 47.25 195.615 47.25ZM211.365 47.25C206.955 47.25 203.49 43.785 203.49 39.375C203.49 34.965 206.955 31.5 211.365 31.5C215.775 31.5 219.24 34.965 219.24 39.375C219.24 43.785 215.775 47.25 211.365 47.25ZM227.115 47.25C222.705 47.25 219.24 43.785 219.24 39.375C219.24 34.965 222.705 31.5 227.115 31.5C231.525 31.5 234.99 34.965 234.99 39.375C234.99 43.785 231.525 47.25 227.115 47.25ZM242.865 63C238.455 63 234.99 59.535 234.99 55.125C234.99 50.715 238.455 47.25 242.865 47.25C247.275 47.25 250.74 50.715 250.74 55.125C250.74 59.535 247.275 63 242.865 63ZM195.615 63C191.205 63 187.74 59.535 187.74 55.125C187.74 50.715 191.205 47.25 195.615 47.25C200.025 47.25 203.49 50.715 203.49 55.125C203.49 59.535 200.025 63 195.615 63ZM211.365 63C206.955 63 203.49 59.535 203.49 55.125C203.49 50.715 206.955 47.25 211.365 47.25C215.775 47.25 219.24 50.715 219.24 55.125C219.24 59.535 215.775 63 211.365 63ZM227.115 63C222.705 63 219.24 59.535 219.24 55.125C219.24 50.715 222.705 47.25 227.115 47.25C231.525 47.25 234.99 50.715 234.99 55.125C234.99 59.535 231.525 63 227.115 63ZM179.865 78.75C175.455 78.75 171.99 75.285 171.99 70.875C171.99 66.465 175.455 63 179.865 63C184.275 63 187.74 66.465 187.74 70.875C187.74 75.285 184.275 78.75 179.865 78.75ZM195.615 78.75C191.205 78.75 187.74 75.285 187.74 70.875C187.74 66.465 191.205 63 195.615 63C200.025 63 203.49 66.465 203.49 70.875C203.49 75.285 200.025 78.75 195.615 78.75ZM227.115 78.75C222.705 78.75 219.24 75.285 219.24 70.875C219.24 66.465 222.705 63 227.115 63C231.525 63 234.99 66.465 234.99 70.875C234.99 75.285 231.525 78.75 227.115 78.75ZM211.365 78.75C206.955 78.75 203.49 75.285 203.49 70.875C203.49 66.465 206.955 63 211.365 63C215.775 63 219.24 66.465 219.24 70.875C219.24 75.285 215.775 78.75 211.365 78.75ZM179.865 94.5C175.455 94.5 171.99 91.035 171.99 86.625C171.99 82.215 175.455 78.75 179.865 78.75C184.275 78.75 187.74 82.215 187.74 86.625C187.74 91.035 184.275 94.5 179.865 94.5ZM195.615 94.5C191.205 94.5 187.74 91.035 187.74 86.625C187.74 82.215 191.205 78.75 195.615 78.75C200.025 78.75 203.49 82.215 203.49 86.625C203.49 91.035 200.025 94.5 195.615 94.5ZM227.115 94.5C222.705 94.5 219.24 91.035 219.24 86.625C219.24 82.215 222.705 78.75 227.115 78.75C231.525 78.75 234.99 82.215 234.99 86.625C234.99 91.035 231.525 94.5 227.115 94.5ZM211.365 94.5C206.955 94.5 203.49 91.035 203.49 86.625C203.49 82.215 206.955 78.75 211.365 78.75C215.775 78.75 219.24 82.215 219.24 86.625C219.24 91.035 215.775 94.5 211.365 94.5ZM164.115 110.25C159.705 110.25 156.24 106.785 156.24 102.375C156.24 97.965 159.705 94.5 164.115 94.5C168.525 94.5 171.99 97.965 171.99 102.375C171.99 106.785 168.525 110.25 164.115 110.25ZM179.865 110.25C175.455 110.25 171.99 106.785 171.99 102.375C171.99 97.965 175.455 94.5 179.865 94.5C184.275 94.5 187.74 97.965 187.74 102.375C187.74 106.785 184.275 110.25 179.865 110.25ZM211.365 110.25C206.955 110.25 203.49 106.785 203.49 102.375C203.49 97.965 206.955 94.5 211.365 94.5C215.775 94.5 219.24 97.965 219.24 102.375C219.24 106.785 215.775 110.25 211.365 110.25ZM195.615 110.25C191.205 110.25 187.74 106.785 187.74 102.375C187.74 97.965 191.205 94.5 195.615 94.5C200.025 94.5 203.49 97.965 203.49 102.375C203.49 106.785 200.025 110.25 195.615 110.25ZM164.115 126C159.705 126 156.24 122.535 156.24 118.125C156.24 113.715 159.705 110.25 164.115 110.25C168.525 110.25 171.99 113.715 171.99 118.125C171.99 122.535 168.525 126 164.115 126ZM179.865 126C175.455 126 171.99 122.535 171.99 118.125C171.99 113.715 175.455 110.25 179.865 110.25C184.275 110.25 187.74 113.715 187.74 118.125C187.74 122.535 184.275 126 179.865 126ZM211.365 126C206.955 126 203.49 122.535 203.49 118.125C203.49 113.715 206.955 110.25 211.365 110.25C215.775 110.25 219.24 113.715 219.24 118.125C219.24 122.535 215.775 126 211.365 126ZM195.615 126C191.205 126 187.74 122.535 187.74 118.125C187.74 113.715 191.205 110.25 195.615 110.25C200.025 110.25 203.49 113.715 203.49 118.125C203.49 122.535 200.025 126 195.615 126ZM195.615 141.75C191.205 141.75 187.74 138.285 187.74 133.875C187.74 129.465 191.205 126 195.615 126C200.025 126 203.49 129.465 203.49 133.875C203.49 138.285 200.025 141.75 195.615 141.75ZM164.115 141.75C159.705 141.75 156.24 138.285 156.24 133.875C156.24 129.465 159.705 126 164.115 126C168.525 126 171.99 129.465 171.99 133.875C171.99 138.285 168.525 141.75 164.115 141.75ZM148.365 141.75C143.955 141.75 140.49 138.285 140.49 133.875C140.49 129.465 143.955 126 148.365 126C152.775 126 156.24 129.465 156.24 133.875C156.24 138.285 152.775 141.75 148.365 141.75ZM179.865 141.75C175.455 141.75 171.99 138.285 171.99 133.875C171.99 129.465 175.455 126 179.865 126C184.275 126 187.74 129.465 187.74 133.875C187.74 138.285 184.275 141.75 179.865 141.75ZM148.365 157.5C143.955 157.5 140.49 154.035 140.49 149.625C140.49 145.215 143.955 141.75 148.365 141.75C152.775 141.75 156.24 145.215 156.24 149.625C156.24 154.035 152.775 157.5 148.365 157.5ZM179.865 157.5C175.455 157.5 171.99 154.035 171.99 149.625C171.99 145.215 175.455 141.75 179.865 141.75C184.275 141.75 187.74 145.215 187.74 149.625C187.74 154.035 184.275 157.5 179.865 157.5ZM195.615 157.5C191.205 157.5 187.74 154.035 187.74 149.625C187.74 145.215 191.205 141.75 195.615 141.75C200.025 141.75 203.49 145.215 203.49 149.625C203.49 154.035 200.025 157.5 195.615 157.5ZM164.115 157.5C159.705 157.5 156.24 154.035 156.24 149.625C156.24 145.215 159.705 141.75 164.115 141.75C168.525 141.75 171.99 145.215 171.99 149.625C171.99 154.035 168.525 157.5 164.115 157.5ZM164.115 173.25C159.705 173.25 156.24 169.785 156.24 165.375C156.24 160.965 159.705 157.5 164.115 157.5C168.525 157.5 171.99 160.965 171.99 165.375C171.99 169.785 168.525 173.25 164.115 173.25ZM132.615 173.25C128.205 173.25 124.74 169.785 124.74 165.375C124.74 160.965 128.205 157.5 132.615 157.5C137.025 157.5 140.49 160.965 140.49 165.375C140.49 169.785 137.025 173.25 132.615 173.25ZM148.365 173.25C143.955 173.25 140.49 169.785 140.49 165.375C140.49 160.965 143.955 157.5 148.365 157.5C152.775 157.5 156.24 160.965 156.24 165.375C156.24 169.785 152.775 173.25 148.365 173.25ZM179.865 173.25C175.455 173.25 171.99 169.785 171.99 165.375C171.99 160.965 175.455 157.5 179.865 157.5C184.275 157.5 187.74 160.965 187.74 165.375C187.74 169.785 184.275 173.25 179.865 173.25ZM132.615 189C128.205 189 124.74 185.535 124.74 181.125C124.74 176.715 128.205 173.25 132.615 173.25C137.025 173.25 140.49 176.715 140.49 181.125C140.49 185.535 137.025 189 132.615 189ZM179.865 189C175.455 189 171.99 185.535 171.99 181.125C171.99 176.715 175.455 173.25 179.865 173.25C184.275 173.25 187.74 176.715 187.74 181.125C187.74 185.535 184.275 189 179.865 189ZM164.115 189C159.705 189 156.24 185.535 156.24 181.125C156.24 176.715 159.705 173.25 164.115 173.25C168.525 173.25 171.99 176.715 171.99 181.125C171.99 185.535 168.525 189 164.115 189ZM148.365 189C143.955 189 140.49 185.535 140.49 181.125C140.49 176.715 143.955 173.25 148.365 173.25C152.775 173.25 156.24 176.715 156.24 181.125C156.24 185.535 152.775 189 148.365 189ZM164.115 204.75C159.705 204.75 156.24 201.285 156.24 196.875C156.24 192.465 159.705 189 164.115 189C168.525 189 171.99 192.465 171.99 196.875C171.99 201.285 168.525 204.75 164.115 204.75ZM148.365 204.75C143.955 204.75 140.49 201.285 140.49 196.875C140.49 192.465 143.955 189 148.365 189C152.775 189 156.24 192.465 156.24 196.875C156.24 201.285 152.775 204.75 148.365 204.75ZM132.615 204.75C128.205 204.75 124.74 201.285 124.74 196.875C124.74 192.465 128.205 189 132.615 189C137.025 189 140.49 192.465 140.49 196.875C140.49 201.285 137.025 204.75 132.615 204.75ZM116.865 204.75C112.455 204.75 108.99 201.285 108.99 196.875C108.99 192.465 112.455 189 116.865 189C121.275 189 124.74 192.465 124.74 196.875C124.74 201.285 121.275 204.75 116.865 204.75ZM148.365 220.5C143.955 220.5 140.49 217.035 140.49 212.625C140.49 208.215 143.955 204.75 148.365 204.75C152.775 204.75 156.24 208.215 156.24 212.625C156.24 217.035 152.775 220.5 148.365 220.5ZM164.115 220.5C159.705 220.5 156.24 217.035 156.24 212.625C156.24 208.215 159.705 204.75 164.115 204.75C168.525 204.75 171.99 208.215 171.99 212.625C171.99 217.035 168.525 220.5 164.115 220.5ZM132.615 220.5C128.205 220.5 124.74 217.035 124.74 212.625C124.74 208.215 128.205 204.75 132.615 204.75C137.025 204.75 140.49 208.215 140.49 212.625C140.49 217.035 137.025 220.5 132.615 220.5ZM116.865 220.5C112.455 220.5 108.99 217.035 108.99 212.625C108.99 208.215 112.455 204.75 116.865 204.75C121.275 204.75 124.74 208.215 124.74 212.625C124.74 217.035 121.275 220.5 116.865 220.5ZM351.855 15.75C347.445 15.75 343.98 12.285 343.98 7.875C343.98 3.465 347.445 0 351.855 0C356.265 0 359.73 3.465 359.73 7.875C359.73 12.285 356.265 15.75 351.855 15.75ZM367.605 15.75C363.195 15.75 359.73 12.285 359.73 7.875C359.73 3.465 363.195 0 367.605 0C372.015 0 375.48 3.465 375.48 7.875C375.48 12.285 372.015 15.75 367.605 15.75ZM336.105 15.75C331.695 15.75 328.23 12.285 328.23 7.875C328.23 3.465 331.695 0 336.105 0C340.515 0 343.98 3.465 343.98 7.875C343.98 12.285 340.515 15.75 336.105 15.75ZM320.355 15.75C315.945 15.75 312.48 12.285 312.48 7.875C312.48 3.465 315.945 0 320.355 0C324.765 0 328.23 3.465 328.23 7.875C328.23 12.285 324.765 15.75 320.355 15.75ZM367.605 31.5C363.195 31.5 359.73 28.035 359.73 23.625C359.73 19.215 363.195 15.75 367.605 15.75C372.015 15.75 375.48 19.215 375.48 23.625C375.48 28.035 372.015 31.5 367.605 31.5ZM351.855 31.5C347.445 31.5 343.98 28.035 343.98 23.625C343.98 19.215 347.445 15.75 351.855 15.75C356.265 15.75 359.73 19.215 359.73 23.625C359.73 28.035 356.265 31.5 351.855 31.5ZM336.105 31.5C331.695 31.5 328.23 28.035 328.23 23.625C328.23 19.215 331.695 15.75 336.105 15.75C340.515 15.75 343.98 19.215 343.98 23.625C343.98 28.035 340.515 31.5 336.105 31.5ZM320.355 31.5C315.945 31.5 312.48 28.035 312.48 23.625C312.48 19.215 315.945 15.75 320.355 15.75C324.765 15.75 328.23 19.215 328.23 23.625C328.23 28.035 324.765 31.5 320.355 31.5ZM351.855 47.25C347.445 47.25 343.98 43.785 343.98 39.375C343.98 34.965 347.445 31.5 351.855 31.5C356.265 31.5 359.73 34.965 359.73 39.375C359.73 43.785 356.265 47.25 351.855 47.25ZM304.605 47.25C300.195 47.25 296.73 43.785 296.73 39.375C296.73 34.965 300.195 31.5 304.605 31.5C309.015 31.5 312.48 34.965 312.48 39.375C312.48 43.785 309.015 47.25 304.605 47.25ZM320.355 47.25C315.945 47.25 312.48 43.785 312.48 39.375C312.48 34.965 315.945 31.5 320.355 31.5C324.765 31.5 328.23 34.965 328.23 39.375C328.23 43.785 324.765 47.25 320.355 47.25ZM336.105 47.25C331.695 47.25 328.23 43.785 328.23 39.375C328.23 34.965 331.695 31.5 336.105 31.5C340.515 31.5 343.98 34.965 343.98 39.375C343.98 43.785 340.515 47.25 336.105 47.25ZM351.855 63C347.445 63 343.98 59.535 343.98 55.125C343.98 50.715 347.445 47.25 351.855 47.25C356.265 47.25 359.73 50.715 359.73 55.125C359.73 59.535 356.265 63 351.855 63ZM304.605 63C300.195 63 296.73 59.535 296.73 55.125C296.73 50.715 300.195 47.25 304.605 47.25C309.015 47.25 312.48 50.715 312.48 55.125C312.48 59.535 309.015 63 304.605 63ZM320.355 63C315.945 63 312.48 59.535 312.48 55.125C312.48 50.715 315.945 47.25 320.355 47.25C324.765 47.25 328.23 50.715 328.23 55.125C328.23 59.535 324.765 63 320.355 63ZM336.105 63C331.695 63 328.23 59.535 328.23 55.125C328.23 50.715 331.695 47.25 336.105 47.25C340.515 47.25 343.98 50.715 343.98 55.125C343.98 59.535 340.515 63 336.105 63ZM288.855 78.75C284.445 78.75 280.98 75.285 280.98 70.875C280.98 66.465 284.445 63 288.855 63C293.265 63 296.73 66.465 296.73 70.875C296.73 75.285 293.265 78.75 288.855 78.75ZM304.605 78.75C300.195 78.75 296.73 75.285 296.73 70.875C296.73 66.465 300.195 63 304.605 63C309.015 63 312.48 66.465 312.48 70.875C312.48 75.285 309.015 78.75 304.605 78.75ZM336.105 78.75C331.695 78.75 328.23 75.285 328.23 70.875C328.23 66.465 331.695 63 336.105 63C340.515 63 343.98 66.465 343.98 70.875C343.98 75.285 340.515 78.75 336.105 78.75ZM320.355 78.75C315.945 78.75 312.48 75.285 312.48 70.875C312.48 66.465 315.945 63 320.355 63C324.765 63 328.23 66.465 328.23 70.875C328.23 75.285 324.765 78.75 320.355 78.75ZM288.855 94.5C284.445 94.5 280.98 91.035 280.98 86.625C280.98 82.215 284.445 78.75 288.855 78.75C293.265 78.75 296.73 82.215 296.73 86.625C296.73 91.035 293.265 94.5 288.855 94.5ZM304.605 94.5C300.195 94.5 296.73 91.035 296.73 86.625C296.73 82.215 300.195 78.75 304.605 78.75C309.015 78.75 312.48 82.215 312.48 86.625C312.48 91.035 309.015 94.5 304.605 94.5ZM336.105 94.5C331.695 94.5 328.23 91.035 328.23 86.625C328.23 82.215 331.695 78.75 336.105 78.75C340.515 78.75 343.98 82.215 343.98 86.625C343.98 91.035 340.515 94.5 336.105 94.5ZM320.355 94.5C315.945 94.5 312.48 91.035 312.48 86.625C312.48 82.215 315.945 78.75 320.355 78.75C324.765 78.75 328.23 82.215 328.23 86.625C328.23 91.035 324.765 94.5 320.355 94.5ZM273.105 110.25C268.695 110.25 265.23 106.785 265.23 102.375C265.23 97.965 268.695 94.5 273.105 94.5C277.515 94.5 280.98 97.965 280.98 102.375C280.98 106.785 277.515 110.25 273.105 110.25ZM288.855 110.25C284.445 110.25 280.98 106.785 280.98 102.375C280.98 97.965 284.445 94.5 288.855 94.5C293.265 94.5 296.73 97.965 296.73 102.375C296.73 106.785 293.265 110.25 288.855 110.25ZM320.355 110.25C315.945 110.25 312.48 106.785 312.48 102.375C312.48 97.965 315.945 94.5 320.355 94.5C324.765 94.5 328.23 97.965 328.23 102.375C328.23 106.785 324.765 110.25 320.355 110.25ZM304.605 110.25C300.195 110.25 296.73 106.785 296.73 102.375C296.73 97.965 300.195 94.5 304.605 94.5C309.015 94.5 312.48 97.965 312.48 102.375C312.48 106.785 309.015 110.25 304.605 110.25ZM273.105 126C268.695 126 265.23 122.535 265.23 118.125C265.23 113.715 268.695 110.25 273.105 110.25C277.515 110.25 280.98 113.715 280.98 118.125C280.98 122.535 277.515 126 273.105 126ZM288.855 126C284.445 126 280.98 122.535 280.98 118.125C280.98 113.715 284.445 110.25 288.855 110.25C293.265 110.25 296.73 113.715 296.73 118.125C296.73 122.535 293.265 126 288.855 126ZM320.355 126C315.945 126 312.48 122.535 312.48 118.125C312.48 113.715 315.945 110.25 320.355 110.25C324.765 110.25 328.23 113.715 328.23 118.125C328.23 122.535 324.765 126 320.355 126ZM304.605 126C300.195 126 296.73 122.535 296.73 118.125C296.73 113.715 300.195 110.25 304.605 110.25C309.015 110.25 312.48 113.715 312.48 118.125C312.48 122.535 309.015 126 304.605 126ZM304.605 141.75C300.195 141.75 296.73 138.285 296.73 133.875C296.73 129.465 300.195 126 304.605 126C309.015 126 312.48 129.465 312.48 133.875C312.48 138.285 309.015 141.75 304.605 141.75ZM273.105 141.75C268.695 141.75 265.23 138.285 265.23 133.875C265.23 129.465 268.695 126 273.105 126C277.515 126 280.98 129.465 280.98 133.875C280.98 138.285 277.515 141.75 273.105 141.75ZM257.355 141.75C252.945 141.75 249.48 138.285 249.48 133.875C249.48 129.465 252.945 126 257.355 126C261.765 126 265.23 129.465 265.23 133.875C265.23 138.285 261.765 141.75 257.355 141.75ZM288.855 141.75C284.445 141.75 280.98 138.285 280.98 133.875C280.98 129.465 284.445 126 288.855 126C293.265 126 296.73 129.465 296.73 133.875C296.73 138.285 293.265 141.75 288.855 141.75ZM257.355 157.5C252.945 157.5 249.48 154.035 249.48 149.625C249.48 145.215 252.945 141.75 257.355 141.75C261.765 141.75 265.23 145.215 265.23 149.625C265.23 154.035 261.765 157.5 257.355 157.5ZM288.855 157.5C284.445 157.5 280.98 154.035 280.98 149.625C280.98 145.215 284.445 141.75 288.855 141.75C293.265 141.75 296.73 145.215 296.73 149.625C296.73 154.035 293.265 157.5 288.855 157.5ZM304.605 157.5C300.195 157.5 296.73 154.035 296.73 149.625C296.73 145.215 300.195 141.75 304.605 141.75C309.015 141.75 312.48 145.215 312.48 149.625C312.48 154.035 309.015 157.5 304.605 157.5ZM273.105 157.5C268.695 157.5 265.23 154.035 265.23 149.625C265.23 145.215 268.695 141.75 273.105 141.75C277.515 141.75 280.98 145.215 280.98 149.625C280.98 154.035 277.515 157.5 273.105 157.5ZM273.105 173.25C268.695 173.25 265.23 169.785 265.23 165.375C265.23 160.965 268.695 157.5 273.105 157.5C277.515 157.5 280.98 160.965 280.98 165.375C280.98 169.785 277.515 173.25 273.105 173.25ZM241.605 173.25C237.195 173.25 233.73 169.785 233.73 165.375C233.73 160.965 237.195 157.5 241.605 157.5C246.015 157.5 249.48 160.965 249.48 165.375C249.48 169.785 246.015 173.25 241.605 173.25ZM257.355 173.25C252.945 173.25 249.48 169.785 249.48 165.375C249.48 160.965 252.945 157.5 257.355 157.5C261.765 157.5 265.23 160.965 265.23 165.375C265.23 169.785 261.765 173.25 257.355 173.25ZM288.855 173.25C284.445 173.25 280.98 169.785 280.98 165.375C280.98 160.965 284.445 157.5 288.855 157.5C293.265 157.5 296.73 160.965 296.73 165.375C296.73 169.785 293.265 173.25 288.855 173.25ZM241.605 189C237.195 189 233.73 185.535 233.73 181.125C233.73 176.715 237.195 173.25 241.605 173.25C246.015 173.25 249.48 176.715 249.48 181.125C249.48 185.535 246.015 189 241.605 189ZM288.855 189C284.445 189 280.98 185.535 280.98 181.125C280.98 176.715 284.445 173.25 288.855 173.25C293.265 173.25 296.73 176.715 296.73 181.125C296.73 185.535 293.265 189 288.855 189ZM273.105 189C268.695 189 265.23 185.535 265.23 181.125C265.23 176.715 268.695 173.25 273.105 173.25C277.515 173.25 280.98 176.715 280.98 181.125C280.98 185.535 277.515 189 273.105 189ZM257.355 189C252.945 189 249.48 185.535 249.48 181.125C249.48 176.715 252.945 173.25 257.355 173.25C261.765 173.25 265.23 176.715 265.23 181.125C265.23 185.535 261.765 189 257.355 189ZM273.105 204.75C268.695 204.75 265.23 201.285 265.23 196.875C265.23 192.465 268.695 189 273.105 189C277.515 189 280.98 192.465 280.98 196.875C280.98 201.285 277.515 204.75 273.105 204.75ZM257.355 204.75C252.945 204.75 249.48 201.285 249.48 196.875C249.48 192.465 252.945 189 257.355 189C261.765 189 265.23 192.465 265.23 196.875C265.23 201.285 261.765 204.75 257.355 204.75ZM241.605 204.75C237.195 204.75 233.73 201.285 233.73 196.875C233.73 192.465 237.195 189 241.605 189C246.015 189 249.48 192.465 249.48 196.875C249.48 201.285 246.015 204.75 241.605 204.75ZM225.855 204.75C221.445 204.75 217.98 201.285 217.98 196.875C217.98 192.465 221.445 189 225.855 189C230.265 189 233.73 192.465 233.73 196.875C233.73 201.285 230.265 204.75 225.855 204.75ZM257.355 220.5C252.945 220.5 249.48 217.035 249.48 212.625C249.48 208.215 252.945 204.75 257.355 204.75C261.765 204.75 265.23 208.215 265.23 212.625C265.23 217.035 261.765 220.5 257.355 220.5ZM273.105 220.5C268.695 220.5 265.23 217.035 265.23 212.625C265.23 208.215 268.695 204.75 273.105 204.75C277.515 204.75 280.98 208.215 280.98 212.625C280.98 217.035 277.515 220.5 273.105 220.5ZM241.605 220.5C237.195 220.5 233.73 217.035 233.73 212.625C233.73 208.215 237.195 204.75 241.605 204.75C246.015 204.75 249.48 208.215 249.48 212.625C249.48 217.035 246.015 220.5 241.605 220.5ZM225.855 220.5C221.445 220.5 217.98 217.035 217.98 212.625C217.98 208.215 221.445 204.75 225.855 204.75C230.265 204.75 233.73 208.215 233.73 212.625C233.73 217.035 230.265 220.5 225.855 220.5Z" fill="#FFFFEE"/>
</svg>
