<svg width="600" height="600" viewBox="0 0 600 600" fill="none" xmlns="http://www.w3.org/2000/svg">
<rect width="600" height="600" rx="166" fill="black"/>
<path d="M237.875 213.75C233.465 213.75 230 210.285 230 205.875C230 201.465 233.465 198 237.875 198C242.285 198 245.75 201.465 245.75 205.875C245.75 210.285 242.285 213.75 237.875 213.75ZM253.625 213.75C249.215 213.75 245.75 210.285 245.75 205.875C245.75 201.465 249.215 198 253.625 198C258.035 198 261.5 201.465 261.5 205.875C261.5 210.285 258.035 213.75 253.625 213.75ZM222.125 213.75C217.715 213.75 214.25 210.285 214.25 205.875C214.25 201.465 217.715 198 222.125 198C226.535 198 230 201.465 230 205.875C230 210.285 226.535 213.75 222.125 213.75ZM206.375 213.75C201.965 213.75 198.5 210.285 198.5 205.875C198.5 201.465 201.965 198 206.375 198C210.785 198 214.25 201.465 214.25 205.875C214.25 210.285 210.785 213.75 206.375 213.75ZM253.625 229.5C249.215 229.5 245.75 226.035 245.75 221.625C245.75 217.215 249.215 213.75 253.625 213.75C258.035 213.75 261.5 217.215 261.5 221.625C261.5 226.035 258.035 229.5 253.625 229.5ZM237.875 229.5C233.465 229.5 230 226.035 230 221.625C230 217.215 233.465 213.75 237.875 213.75C242.285 213.75 245.75 217.215 245.75 221.625C245.75 226.035 242.285 229.5 237.875 229.5ZM222.125 229.5C217.715 229.5 214.25 226.035 214.25 221.625C214.25 217.215 217.715 213.75 222.125 213.75C226.535 213.75 230 217.215 230 221.625C230 226.035 226.535 229.5 222.125 229.5ZM206.375 229.5C201.965 229.5 198.5 226.035 198.5 221.625C198.5 217.215 201.965 213.75 206.375 213.75C210.785 213.75 214.25 217.215 214.25 221.625C214.25 226.035 210.785 229.5 206.375 229.5ZM237.875 245.25C233.465 245.25 230 241.785 230 237.375C230 232.965 233.465 229.5 237.875 229.5C242.285 229.5 245.75 232.965 245.75 237.375C245.75 241.785 242.285 245.25 237.875 245.25ZM190.625 245.25C186.215 245.25 182.75 241.785 182.75 237.375C182.75 232.965 186.215 229.5 190.625 229.5C195.035 229.5 198.5 232.965 198.5 237.375C198.5 241.785 195.035 245.25 190.625 245.25ZM206.375 245.25C201.965 245.25 198.5 241.785 198.5 237.375C198.5 232.965 201.965 229.5 206.375 229.5C210.785 229.5 214.25 232.965 214.25 237.375C214.25 241.785 210.785 245.25 206.375 245.25ZM222.125 245.25C217.715 245.25 214.25 241.785 214.25 237.375C214.25 232.965 217.715 229.5 222.125 229.5C226.535 229.5 230 232.965 230 237.375C230 241.785 226.535 245.25 222.125 245.25ZM237.875 261C233.465 261 230 257.535 230 253.125C230 248.715 233.465 245.25 237.875 245.25C242.285 245.25 245.75 248.715 245.75 253.125C245.75 257.535 242.285 261 237.875 261ZM190.625 261C186.215 261 182.75 257.535 182.75 253.125C182.75 248.715 186.215 245.25 190.625 245.25C195.035 245.25 198.5 248.715 198.5 253.125C198.5 257.535 195.035 261 190.625 261ZM206.375 261C201.965 261 198.5 257.535 198.5 253.125C198.5 248.715 201.965 245.25 206.375 245.25C210.785 245.25 214.25 248.715 214.25 253.125C214.25 257.535 210.785 261 206.375 261ZM222.125 261C217.715 261 214.25 257.535 214.25 253.125C214.25 248.715 217.715 245.25 222.125 245.25C226.535 245.25 230 248.715 230 253.125C230 257.535 226.535 261 222.125 261ZM174.875 276.75C170.465 276.75 167 273.285 167 268.875C167 264.465 170.465 261 174.875 261C179.285 261 182.75 264.465 182.75 268.875C182.75 273.285 179.285 276.75 174.875 276.75ZM190.625 276.75C186.215 276.75 182.75 273.285 182.75 268.875C182.75 264.465 186.215 261 190.625 261C195.035 261 198.5 264.465 198.5 268.875C198.5 273.285 195.035 276.75 190.625 276.75ZM222.125 276.75C217.715 276.75 214.25 273.285 214.25 268.875C214.25 264.465 217.715 261 222.125 261C226.535 261 230 264.465 230 268.875C230 273.285 226.535 276.75 222.125 276.75ZM206.375 276.75C201.965 276.75 198.5 273.285 198.5 268.875C198.5 264.465 201.965 261 206.375 261C210.785 261 214.25 264.465 214.25 268.875C214.25 273.285 210.785 276.75 206.375 276.75ZM174.875 292.5C170.465 292.5 167 289.035 167 284.625C167 280.215 170.465 276.75 174.875 276.75C179.285 276.75 182.75 280.215 182.75 284.625C182.75 289.035 179.285 292.5 174.875 292.5ZM190.625 292.5C186.215 292.5 182.75 289.035 182.75 284.625C182.75 280.215 186.215 276.75 190.625 276.75C195.035 276.75 198.5 280.215 198.5 284.625C198.5 289.035 195.035 292.5 190.625 292.5ZM222.125 292.5C217.715 292.5 214.25 289.035 214.25 284.625C214.25 280.215 217.715 276.75 222.125 276.75C226.535 276.75 230 280.215 230 284.625C230 289.035 226.535 292.5 222.125 292.5ZM206.375 292.5C201.965 292.5 198.5 289.035 198.5 284.625C198.5 280.215 201.965 276.75 206.375 276.75C210.785 276.75 214.25 280.215 214.25 284.625C214.25 289.035 210.785 292.5 206.375 292.5ZM159.125 308.25C154.715 308.25 151.25 304.785 151.25 300.375C151.25 295.965 154.715 292.5 159.125 292.5C163.535 292.5 167 295.965 167 300.375C167 304.785 163.535 308.25 159.125 308.25ZM174.875 308.25C170.465 308.25 167 304.785 167 300.375C167 295.965 170.465 292.5 174.875 292.5C179.285 292.5 182.75 295.965 182.75 300.375C182.75 304.785 179.285 308.25 174.875 308.25ZM206.375 308.25C201.965 308.25 198.5 304.785 198.5 300.375C198.5 295.965 201.965 292.5 206.375 292.5C210.785 292.5 214.25 295.965 214.25 300.375C214.25 304.785 210.785 308.25 206.375 308.25ZM190.625 308.25C186.215 308.25 182.75 304.785 182.75 300.375C182.75 295.965 186.215 292.5 190.625 292.5C195.035 292.5 198.5 295.965 198.5 300.375C198.5 304.785 195.035 308.25 190.625 308.25ZM159.125 324C154.715 324 151.25 320.535 151.25 316.125C151.25 311.715 154.715 308.25 159.125 308.25C163.535 308.25 167 311.715 167 316.125C167 320.535 163.535 324 159.125 324ZM174.875 324C170.465 324 167 320.535 167 316.125C167 311.715 170.465 308.25 174.875 308.25C179.285 308.25 182.75 311.715 182.75 316.125C182.75 320.535 179.285 324 174.875 324ZM206.375 324C201.965 324 198.5 320.535 198.5 316.125C198.5 311.715 201.965 308.25 206.375 308.25C210.785 308.25 214.25 311.715 214.25 316.125C214.25 320.535 210.785 324 206.375 324ZM190.625 324C186.215 324 182.75 320.535 182.75 316.125C182.75 311.715 186.215 308.25 190.625 308.25C195.035 308.25 198.5 311.715 198.5 316.125C198.5 320.535 195.035 324 190.625 324ZM190.625 339.75C186.215 339.75 182.75 336.285 182.75 331.875C182.75 327.465 186.215 324 190.625 324C195.035 324 198.5 327.465 198.5 331.875C198.5 336.285 195.035 339.75 190.625 339.75ZM159.125 339.75C154.715 339.75 151.25 336.285 151.25 331.875C151.25 327.465 154.715 324 159.125 324C163.535 324 167 327.465 167 331.875C167 336.285 163.535 339.75 159.125 339.75ZM143.375 339.75C138.965 339.75 135.5 336.285 135.5 331.875C135.5 327.465 138.965 324 143.375 324C147.785 324 151.25 327.465 151.25 331.875C151.25 336.285 147.785 339.75 143.375 339.75ZM174.875 339.75C170.465 339.75 167 336.285 167 331.875C167 327.465 170.465 324 174.875 324C179.285 324 182.75 327.465 182.75 331.875C182.75 336.285 179.285 339.75 174.875 339.75ZM143.375 355.5C138.965 355.5 135.5 352.035 135.5 347.625C135.5 343.215 138.965 339.75 143.375 339.75C147.785 339.75 151.25 343.215 151.25 347.625C151.25 352.035 147.785 355.5 143.375 355.5ZM174.875 355.5C170.465 355.5 167 352.035 167 347.625C167 343.215 170.465 339.75 174.875 339.75C179.285 339.75 182.75 343.215 182.75 347.625C182.75 352.035 179.285 355.5 174.875 355.5ZM190.625 355.5C186.215 355.5 182.75 352.035 182.75 347.625C182.75 343.215 186.215 339.75 190.625 339.75C195.035 339.75 198.5 343.215 198.5 347.625C198.5 352.035 195.035 355.5 190.625 355.5ZM159.125 355.5C154.715 355.5 151.25 352.035 151.25 347.625C151.25 343.215 154.715 339.75 159.125 339.75C163.535 339.75 167 343.215 167 347.625C167 352.035 163.535 355.5 159.125 355.5ZM159.125 371.25C154.715 371.25 151.25 367.785 151.25 363.375C151.25 358.965 154.715 355.5 159.125 355.5C163.535 355.5 167 358.965 167 363.375C167 367.785 163.535 371.25 159.125 371.25ZM127.625 371.25C123.215 371.25 119.75 367.785 119.75 363.375C119.75 358.965 123.215 355.5 127.625 355.5C132.035 355.5 135.5 358.965 135.5 363.375C135.5 367.785 132.035 371.25 127.625 371.25ZM143.375 371.25C138.965 371.25 135.5 367.785 135.5 363.375C135.5 358.965 138.965 355.5 143.375 355.5C147.785 355.5 151.25 358.965 151.25 363.375C151.25 367.785 147.785 371.25 143.375 371.25ZM174.875 371.25C170.465 371.25 167 367.785 167 363.375C167 358.965 170.465 355.5 174.875 355.5C179.285 355.5 182.75 358.965 182.75 363.375C182.75 367.785 179.285 371.25 174.875 371.25ZM127.625 387C123.215 387 119.75 383.535 119.75 379.125C119.75 374.715 123.215 371.25 127.625 371.25C132.035 371.25 135.5 374.715 135.5 379.125C135.5 383.535 132.035 387 127.625 387ZM174.875 387C170.465 387 167 383.535 167 379.125C167 374.715 170.465 371.25 174.875 371.25C179.285 371.25 182.75 374.715 182.75 379.125C182.75 383.535 179.285 387 174.875 387ZM159.125 387C154.715 387 151.25 383.535 151.25 379.125C151.25 374.715 154.715 371.25 159.125 371.25C163.535 371.25 167 374.715 167 379.125C167 383.535 163.535 387 159.125 387ZM143.375 387C138.965 387 135.5 383.535 135.5 379.125C135.5 374.715 138.965 371.25 143.375 371.25C147.785 371.25 151.25 374.715 151.25 379.125C151.25 383.535 147.785 387 143.375 387ZM159.125 402.75C154.715 402.75 151.25 399.285 151.25 394.875C151.25 390.465 154.715 387 159.125 387C163.535 387 167 390.465 167 394.875C167 399.285 163.535 402.75 159.125 402.75ZM143.375 402.75C138.965 402.75 135.5 399.285 135.5 394.875C135.5 390.465 138.965 387 143.375 387C147.785 387 151.25 390.465 151.25 394.875C151.25 399.285 147.785 402.75 143.375 402.75ZM127.625 402.75C123.215 402.75 119.75 399.285 119.75 394.875C119.75 390.465 123.215 387 127.625 387C132.035 387 135.5 390.465 135.5 394.875C135.5 399.285 132.035 402.75 127.625 402.75ZM111.875 402.75C107.465 402.75 104 399.285 104 394.875C104 390.465 107.465 387 111.875 387C116.285 387 119.75 390.465 119.75 394.875C119.75 399.285 116.285 402.75 111.875 402.75ZM143.375 418.5C138.965 418.5 135.5 415.035 135.5 410.625C135.5 406.215 138.965 402.75 143.375 402.75C147.785 402.75 151.25 406.215 151.25 410.625C151.25 415.035 147.785 418.5 143.375 418.5ZM159.125 418.5C154.715 418.5 151.25 415.035 151.25 410.625C151.25 406.215 154.715 402.75 159.125 402.75C163.535 402.75 167 406.215 167 410.625C167 415.035 163.535 418.5 159.125 418.5ZM127.625 418.5C123.215 418.5 119.75 415.035 119.75 410.625C119.75 406.215 123.215 402.75 127.625 402.75C132.035 402.75 135.5 406.215 135.5 410.625C135.5 415.035 132.035 418.5 127.625 418.5ZM111.875 418.5C107.465 418.5 104 415.035 104 410.625C104 406.215 107.465 402.75 111.875 402.75C116.285 402.75 119.75 406.215 119.75 410.625C119.75 415.035 116.285 418.5 111.875 418.5ZM346.865 213.75C342.455 213.75 338.99 210.285 338.99 205.875C338.99 201.465 342.455 198 346.865 198C351.275 198 354.74 201.465 354.74 205.875C354.74 210.285 351.275 213.75 346.865 213.75ZM362.615 213.75C358.205 213.75 354.74 210.285 354.74 205.875C354.74 201.465 358.205 198 362.615 198C367.025 198 370.49 201.465 370.49 205.875C370.49 210.285 367.025 213.75 362.615 213.75ZM331.115 213.75C326.705 213.75 323.24 210.285 323.24 205.875C323.24 201.465 326.705 198 331.115 198C335.525 198 338.99 201.465 338.99 205.875C338.99 210.285 335.525 213.75 331.115 213.75ZM315.365 213.75C310.955 213.75 307.49 210.285 307.49 205.875C307.49 201.465 310.955 198 315.365 198C319.775 198 323.24 201.465 323.24 205.875C323.24 210.285 319.775 213.75 315.365 213.75ZM362.615 229.5C358.205 229.5 354.74 226.035 354.74 221.625C354.74 217.215 358.205 213.75 362.615 213.75C367.025 213.75 370.49 217.215 370.49 221.625C370.49 226.035 367.025 229.5 362.615 229.5ZM346.865 229.5C342.455 229.5 338.99 226.035 338.99 221.625C338.99 217.215 342.455 213.75 346.865 213.75C351.275 213.75 354.74 217.215 354.74 221.625C354.74 226.035 351.275 229.5 346.865 229.5ZM331.115 229.5C326.705 229.5 323.24 226.035 323.24 221.625C323.24 217.215 326.705 213.75 331.115 213.75C335.525 213.75 338.99 217.215 338.99 221.625C338.99 226.035 335.525 229.5 331.115 229.5ZM315.365 229.5C310.955 229.5 307.49 226.035 307.49 221.625C307.49 217.215 310.955 213.75 315.365 213.75C319.775 213.75 323.24 217.215 323.24 221.625C323.24 226.035 319.775 229.5 315.365 229.5ZM346.865 245.25C342.455 245.25 338.99 241.785 338.99 237.375C338.99 232.965 342.455 229.5 346.865 229.5C351.275 229.5 354.74 232.965 354.74 237.375C354.74 241.785 351.275 245.25 346.865 245.25ZM299.615 245.25C295.205 245.25 291.74 241.785 291.74 237.375C291.74 232.965 295.205 229.5 299.615 229.5C304.025 229.5 307.49 232.965 307.49 237.375C307.49 241.785 304.025 245.25 299.615 245.25ZM315.365 245.25C310.955 245.25 307.49 241.785 307.49 237.375C307.49 232.965 310.955 229.5 315.365 229.5C319.775 229.5 323.24 232.965 323.24 237.375C323.24 241.785 319.775 245.25 315.365 245.25ZM331.115 245.25C326.705 245.25 323.24 241.785 323.24 237.375C323.24 232.965 326.705 229.5 331.115 229.5C335.525 229.5 338.99 232.965 338.99 237.375C338.99 241.785 335.525 245.25 331.115 245.25ZM346.865 261C342.455 261 338.99 257.535 338.99 253.125C338.99 248.715 342.455 245.25 346.865 245.25C351.275 245.25 354.74 248.715 354.74 253.125C354.74 257.535 351.275 261 346.865 261ZM299.615 261C295.205 261 291.74 257.535 291.74 253.125C291.74 248.715 295.205 245.25 299.615 245.25C304.025 245.25 307.49 248.715 307.49 253.125C307.49 257.535 304.025 261 299.615 261ZM315.365 261C310.955 261 307.49 257.535 307.49 253.125C307.49 248.715 310.955 245.25 315.365 245.25C319.775 245.25 323.24 248.715 323.24 253.125C323.24 257.535 319.775 261 315.365 261ZM331.115 261C326.705 261 323.24 257.535 323.24 253.125C323.24 248.715 326.705 245.25 331.115 245.25C335.525 245.25 338.99 248.715 338.99 253.125C338.99 257.535 335.525 261 331.115 261ZM283.865 276.75C279.455 276.75 275.99 273.285 275.99 268.875C275.99 264.465 279.455 261 283.865 261C288.275 261 291.74 264.465 291.74 268.875C291.74 273.285 288.275 276.75 283.865 276.75ZM299.615 276.75C295.205 276.75 291.74 273.285 291.74 268.875C291.74 264.465 295.205 261 299.615 261C304.025 261 307.49 264.465 307.49 268.875C307.49 273.285 304.025 276.75 299.615 276.75ZM331.115 276.75C326.705 276.75 323.24 273.285 323.24 268.875C323.24 264.465 326.705 261 331.115 261C335.525 261 338.99 264.465 338.99 268.875C338.99 273.285 335.525 276.75 331.115 276.75ZM315.365 276.75C310.955 276.75 307.49 273.285 307.49 268.875C307.49 264.465 310.955 261 315.365 261C319.775 261 323.24 264.465 323.24 268.875C323.24 273.285 319.775 276.75 315.365 276.75ZM283.865 292.5C279.455 292.5 275.99 289.035 275.99 284.625C275.99 280.215 279.455 276.75 283.865 276.75C288.275 276.75 291.74 280.215 291.74 284.625C291.74 289.035 288.275 292.5 283.865 292.5ZM299.615 292.5C295.205 292.5 291.74 289.035 291.74 284.625C291.74 280.215 295.205 276.75 299.615 276.75C304.025 276.75 307.49 280.215 307.49 284.625C307.49 289.035 304.025 292.5 299.615 292.5ZM331.115 292.5C326.705 292.5 323.24 289.035 323.24 284.625C323.24 280.215 326.705 276.75 331.115 276.75C335.525 276.75 338.99 280.215 338.99 284.625C338.99 289.035 335.525 292.5 331.115 292.5ZM315.365 292.5C310.955 292.5 307.49 289.035 307.49 284.625C307.49 280.215 310.955 276.75 315.365 276.75C319.775 276.75 323.24 280.215 323.24 284.625C323.24 289.035 319.775 292.5 315.365 292.5ZM268.115 308.25C263.705 308.25 260.24 304.785 260.24 300.375C260.24 295.965 263.705 292.5 268.115 292.5C272.525 292.5 275.99 295.965 275.99 300.375C275.99 304.785 272.525 308.25 268.115 308.25ZM283.865 308.25C279.455 308.25 275.99 304.785 275.99 300.375C275.99 295.965 279.455 292.5 283.865 292.5C288.275 292.5 291.74 295.965 291.74 300.375C291.74 304.785 288.275 308.25 283.865 308.25ZM315.365 308.25C310.955 308.25 307.49 304.785 307.49 300.375C307.49 295.965 310.955 292.5 315.365 292.5C319.775 292.5 323.24 295.965 323.24 300.375C323.24 304.785 319.775 308.25 315.365 308.25ZM299.615 308.25C295.205 308.25 291.74 304.785 291.74 300.375C291.74 295.965 295.205 292.5 299.615 292.5C304.025 292.5 307.49 295.965 307.49 300.375C307.49 304.785 304.025 308.25 299.615 308.25ZM268.115 324C263.705 324 260.24 320.535 260.24 316.125C260.24 311.715 263.705 308.25 268.115 308.25C272.525 308.25 275.99 311.715 275.99 316.125C275.99 320.535 272.525 324 268.115 324ZM283.865 324C279.455 324 275.99 320.535 275.99 316.125C275.99 311.715 279.455 308.25 283.865 308.25C288.275 308.25 291.74 311.715 291.74 316.125C291.74 320.535 288.275 324 283.865 324ZM315.365 324C310.955 324 307.49 320.535 307.49 316.125C307.49 311.715 310.955 308.25 315.365 308.25C319.775 308.25 323.24 311.715 323.24 316.125C323.24 320.535 319.775 324 315.365 324ZM299.615 324C295.205 324 291.74 320.535 291.74 316.125C291.74 311.715 295.205 308.25 299.615 308.25C304.025 308.25 307.49 311.715 307.49 316.125C307.49 320.535 304.025 324 299.615 324ZM299.615 339.75C295.205 339.75 291.74 336.285 291.74 331.875C291.74 327.465 295.205 324 299.615 324C304.025 324 307.49 327.465 307.49 331.875C307.49 336.285 304.025 339.75 299.615 339.75ZM268.115 339.75C263.705 339.75 260.24 336.285 260.24 331.875C260.24 327.465 263.705 324 268.115 324C272.525 324 275.99 327.465 275.99 331.875C275.99 336.285 272.525 339.75 268.115 339.75ZM252.365 339.75C247.955 339.75 244.49 336.285 244.49 331.875C244.49 327.465 247.955 324 252.365 324C256.775 324 260.24 327.465 260.24 331.875C260.24 336.285 256.775 339.75 252.365 339.75ZM283.865 339.75C279.455 339.75 275.99 336.285 275.99 331.875C275.99 327.465 279.455 324 283.865 324C288.275 324 291.74 327.465 291.74 331.875C291.74 336.285 288.275 339.75 283.865 339.75ZM252.365 355.5C247.955 355.5 244.49 352.035 244.49 347.625C244.49 343.215 247.955 339.75 252.365 339.75C256.775 339.75 260.24 343.215 260.24 347.625C260.24 352.035 256.775 355.5 252.365 355.5ZM283.865 355.5C279.455 355.5 275.99 352.035 275.99 347.625C275.99 343.215 279.455 339.75 283.865 339.75C288.275 339.75 291.74 343.215 291.74 347.625C291.74 352.035 288.275 355.5 283.865 355.5ZM299.615 355.5C295.205 355.5 291.74 352.035 291.74 347.625C291.74 343.215 295.205 339.75 299.615 339.75C304.025 339.75 307.49 343.215 307.49 347.625C307.49 352.035 304.025 355.5 299.615 355.5ZM268.115 355.5C263.705 355.5 260.24 352.035 260.24 347.625C260.24 343.215 263.705 339.75 268.115 339.75C272.525 339.75 275.99 343.215 275.99 347.625C275.99 352.035 272.525 355.5 268.115 355.5ZM268.115 371.25C263.705 371.25 260.24 367.785 260.24 363.375C260.24 358.965 263.705 355.5 268.115 355.5C272.525 355.5 275.99 358.965 275.99 363.375C275.99 367.785 272.525 371.25 268.115 371.25ZM236.615 371.25C232.205 371.25 228.74 367.785 228.74 363.375C228.74 358.965 232.205 355.5 236.615 355.5C241.025 355.5 244.49 358.965 244.49 363.375C244.49 367.785 241.025 371.25 236.615 371.25ZM252.365 371.25C247.955 371.25 244.49 367.785 244.49 363.375C244.49 358.965 247.955 355.5 252.365 355.5C256.775 355.5 260.24 358.965 260.24 363.375C260.24 367.785 256.775 371.25 252.365 371.25ZM283.865 371.25C279.455 371.25 275.99 367.785 275.99 363.375C275.99 358.965 279.455 355.5 283.865 355.5C288.275 355.5 291.74 358.965 291.74 363.375C291.74 367.785 288.275 371.25 283.865 371.25ZM236.615 387C232.205 387 228.74 383.535 228.74 379.125C228.74 374.715 232.205 371.25 236.615 371.25C241.025 371.25 244.49 374.715 244.49 379.125C244.49 383.535 241.025 387 236.615 387ZM283.865 387C279.455 387 275.99 383.535 275.99 379.125C275.99 374.715 279.455 371.25 283.865 371.25C288.275 371.25 291.74 374.715 291.74 379.125C291.74 383.535 288.275 387 283.865 387ZM268.115 387C263.705 387 260.24 383.535 260.24 379.125C260.24 374.715 263.705 371.25 268.115 371.25C272.525 371.25 275.99 374.715 275.99 379.125C275.99 383.535 272.525 387 268.115 387ZM252.365 387C247.955 387 244.49 383.535 244.49 379.125C244.49 374.715 247.955 371.25 252.365 371.25C256.775 371.25 260.24 374.715 260.24 379.125C260.24 383.535 256.775 387 252.365 387ZM268.115 402.75C263.705 402.75 260.24 399.285 260.24 394.875C260.24 390.465 263.705 387 268.115 387C272.525 387 275.99 390.465 275.99 394.875C275.99 399.285 272.525 402.75 268.115 402.75ZM252.365 402.75C247.955 402.75 244.49 399.285 244.49 394.875C244.49 390.465 247.955 387 252.365 387C256.775 387 260.24 390.465 260.24 394.875C260.24 399.285 256.775 402.75 252.365 402.75ZM236.615 402.75C232.205 402.75 228.74 399.285 228.74 394.875C228.74 390.465 232.205 387 236.615 387C241.025 387 244.49 390.465 244.49 394.875C244.49 399.285 241.025 402.75 236.615 402.75ZM220.865 402.75C216.455 402.75 212.99 399.285 212.99 394.875C212.99 390.465 216.455 387 220.865 387C225.275 387 228.74 390.465 228.74 394.875C228.74 399.285 225.275 402.75 220.865 402.75ZM252.365 418.5C247.955 418.5 244.49 415.035 244.49 410.625C244.49 406.215 247.955 402.75 252.365 402.75C256.775 402.75 260.24 406.215 260.24 410.625C260.24 415.035 256.775 418.5 252.365 418.5ZM268.115 418.5C263.705 418.5 260.24 415.035 260.24 410.625C260.24 406.215 263.705 402.75 268.115 402.75C272.525 402.75 275.99 406.215 275.99 410.625C275.99 415.035 272.525 418.5 268.115 418.5ZM236.615 418.5C232.205 418.5 228.74 415.035 228.74 410.625C228.74 406.215 232.205 402.75 236.615 402.75C241.025 402.75 244.49 406.215 244.49 410.625C244.49 415.035 241.025 418.5 236.615 418.5ZM220.865 418.5C216.455 418.5 212.99 415.035 212.99 410.625C212.99 406.215 216.455 402.75 220.865 402.75C225.275 402.75 228.74 406.215 228.74 410.625C228.74 415.035 225.275 418.5 220.865 418.5ZM455.855 213.75C451.445 213.75 447.98 210.285 447.98 205.875C447.98 201.465 451.445 198 455.855 198C460.265 198 463.73 201.465 463.73 205.875C463.73 210.285 460.265 213.75 455.855 213.75ZM471.605 213.75C467.195 213.75 463.73 210.285 463.73 205.875C463.73 201.465 467.195 198 471.605 198C476.015 198 479.48 201.465 479.48 205.875C479.48 210.285 476.015 213.75 471.605 213.75ZM440.105 213.75C435.695 213.75 432.23 210.285 432.23 205.875C432.23 201.465 435.695 198 440.105 198C444.515 198 447.98 201.465 447.98 205.875C447.98 210.285 444.515 213.75 440.105 213.75ZM424.355 213.75C419.945 213.75 416.48 210.285 416.48 205.875C416.48 201.465 419.945 198 424.355 198C428.765 198 432.23 201.465 432.23 205.875C432.23 210.285 428.765 213.75 424.355 213.75ZM471.605 229.5C467.195 229.5 463.73 226.035 463.73 221.625C463.73 217.215 467.195 213.75 471.605 213.75C476.015 213.75 479.48 217.215 479.48 221.625C479.48 226.035 476.015 229.5 471.605 229.5ZM455.855 229.5C451.445 229.5 447.98 226.035 447.98 221.625C447.98 217.215 451.445 213.75 455.855 213.75C460.265 213.75 463.73 217.215 463.73 221.625C463.73 226.035 460.265 229.5 455.855 229.5ZM440.105 229.5C435.695 229.5 432.23 226.035 432.23 221.625C432.23 217.215 435.695 213.75 440.105 213.75C444.515 213.75 447.98 217.215 447.98 221.625C447.98 226.035 444.515 229.5 440.105 229.5ZM424.355 229.5C419.945 229.5 416.48 226.035 416.48 221.625C416.48 217.215 419.945 213.75 424.355 213.75C428.765 213.75 432.23 217.215 432.23 221.625C432.23 226.035 428.765 229.5 424.355 229.5ZM455.855 245.25C451.445 245.25 447.98 241.785 447.98 237.375C447.98 232.965 451.445 229.5 455.855 229.5C460.265 229.5 463.73 232.965 463.73 237.375C463.73 241.785 460.265 245.25 455.855 245.25ZM408.605 245.25C404.195 245.25 400.73 241.785 400.73 237.375C400.73 232.965 404.195 229.5 408.605 229.5C413.015 229.5 416.48 232.965 416.48 237.375C416.48 241.785 413.015 245.25 408.605 245.25ZM424.355 245.25C419.945 245.25 416.48 241.785 416.48 237.375C416.48 232.965 419.945 229.5 424.355 229.5C428.765 229.5 432.23 232.965 432.23 237.375C432.23 241.785 428.765 245.25 424.355 245.25ZM440.105 245.25C435.695 245.25 432.23 241.785 432.23 237.375C432.23 232.965 435.695 229.5 440.105 229.5C444.515 229.5 447.98 232.965 447.98 237.375C447.98 241.785 444.515 245.25 440.105 245.25ZM455.855 261C451.445 261 447.98 257.535 447.98 253.125C447.98 248.715 451.445 245.25 455.855 245.25C460.265 245.25 463.73 248.715 463.73 253.125C463.73 257.535 460.265 261 455.855 261ZM408.605 261C404.195 261 400.73 257.535 400.73 253.125C400.73 248.715 404.195 245.25 408.605 245.25C413.015 245.25 416.48 248.715 416.48 253.125C416.48 257.535 413.015 261 408.605 261ZM424.355 261C419.945 261 416.48 257.535 416.48 253.125C416.48 248.715 419.945 245.25 424.355 245.25C428.765 245.25 432.23 248.715 432.23 253.125C432.23 257.535 428.765 261 424.355 261ZM440.105 261C435.695 261 432.23 257.535 432.23 253.125C432.23 248.715 435.695 245.25 440.105 245.25C444.515 245.25 447.98 248.715 447.98 253.125C447.98 257.535 444.515 261 440.105 261ZM392.855 276.75C388.445 276.75 384.98 273.285 384.98 268.875C384.98 264.465 388.445 261 392.855 261C397.265 261 400.73 264.465 400.73 268.875C400.73 273.285 397.265 276.75 392.855 276.75ZM408.605 276.75C404.195 276.75 400.73 273.285 400.73 268.875C400.73 264.465 404.195 261 408.605 261C413.015 261 416.48 264.465 416.48 268.875C416.48 273.285 413.015 276.75 408.605 276.75ZM440.105 276.75C435.695 276.75 432.23 273.285 432.23 268.875C432.23 264.465 435.695 261 440.105 261C444.515 261 447.98 264.465 447.98 268.875C447.98 273.285 444.515 276.75 440.105 276.75ZM424.355 276.75C419.945 276.75 416.48 273.285 416.48 268.875C416.48 264.465 419.945 261 424.355 261C428.765 261 432.23 264.465 432.23 268.875C432.23 273.285 428.765 276.75 424.355 276.75ZM392.855 292.5C388.445 292.5 384.98 289.035 384.98 284.625C384.98 280.215 388.445 276.75 392.855 276.75C397.265 276.75 400.73 280.215 400.73 284.625C400.73 289.035 397.265 292.5 392.855 292.5ZM408.605 292.5C404.195 292.5 400.73 289.035 400.73 284.625C400.73 280.215 404.195 276.75 408.605 276.75C413.015 276.75 416.48 280.215 416.48 284.625C416.48 289.035 413.015 292.5 408.605 292.5ZM440.105 292.5C435.695 292.5 432.23 289.035 432.23 284.625C432.23 280.215 435.695 276.75 440.105 276.75C444.515 276.75 447.98 280.215 447.98 284.625C447.98 289.035 444.515 292.5 440.105 292.5ZM424.355 292.5C419.945 292.5 416.48 289.035 416.48 284.625C416.48 280.215 419.945 276.75 424.355 276.75C428.765 276.75 432.23 280.215 432.23 284.625C432.23 289.035 428.765 292.5 424.355 292.5ZM377.105 308.25C372.695 308.25 369.23 304.785 369.23 300.375C369.23 295.965 372.695 292.5 377.105 292.5C381.515 292.5 384.98 295.965 384.98 300.375C384.98 304.785 381.515 308.25 377.105 308.25ZM392.855 308.25C388.445 308.25 384.98 304.785 384.98 300.375C384.98 295.965 388.445 292.5 392.855 292.5C397.265 292.5 400.73 295.965 400.73 300.375C400.73 304.785 397.265 308.25 392.855 308.25ZM424.355 308.25C419.945 308.25 416.48 304.785 416.48 300.375C416.48 295.965 419.945 292.5 424.355 292.5C428.765 292.5 432.23 295.965 432.23 300.375C432.23 304.785 428.765 308.25 424.355 308.25ZM408.605 308.25C404.195 308.25 400.73 304.785 400.73 300.375C400.73 295.965 404.195 292.5 408.605 292.5C413.015 292.5 416.48 295.965 416.48 300.375C416.48 304.785 413.015 308.25 408.605 308.25ZM377.105 324C372.695 324 369.23 320.535 369.23 316.125C369.23 311.715 372.695 308.25 377.105 308.25C381.515 308.25 384.98 311.715 384.98 316.125C384.98 320.535 381.515 324 377.105 324ZM392.855 324C388.445 324 384.98 320.535 384.98 316.125C384.98 311.715 388.445 308.25 392.855 308.25C397.265 308.25 400.73 311.715 400.73 316.125C400.73 320.535 397.265 324 392.855 324ZM424.355 324C419.945 324 416.48 320.535 416.48 316.125C416.48 311.715 419.945 308.25 424.355 308.25C428.765 308.25 432.23 311.715 432.23 316.125C432.23 320.535 428.765 324 424.355 324ZM408.605 324C404.195 324 400.73 320.535 400.73 316.125C400.73 311.715 404.195 308.25 408.605 308.25C413.015 308.25 416.48 311.715 416.48 316.125C416.48 320.535 413.015 324 408.605 324ZM408.605 339.75C404.195 339.75 400.73 336.285 400.73 331.875C400.73 327.465 404.195 324 408.605 324C413.015 324 416.48 327.465 416.48 331.875C416.48 336.285 413.015 339.75 408.605 339.75ZM377.105 339.75C372.695 339.75 369.23 336.285 369.23 331.875C369.23 327.465 372.695 324 377.105 324C381.515 324 384.98 327.465 384.98 331.875C384.98 336.285 381.515 339.75 377.105 339.75ZM361.355 339.75C356.945 339.75 353.48 336.285 353.48 331.875C353.48 327.465 356.945 324 361.355 324C365.765 324 369.23 327.465 369.23 331.875C369.23 336.285 365.765 339.75 361.355 339.75ZM392.855 339.75C388.445 339.75 384.98 336.285 384.98 331.875C384.98 327.465 388.445 324 392.855 324C397.265 324 400.73 327.465 400.73 331.875C400.73 336.285 397.265 339.75 392.855 339.75ZM361.355 355.5C356.945 355.5 353.48 352.035 353.48 347.625C353.48 343.215 356.945 339.75 361.355 339.75C365.765 339.75 369.23 343.215 369.23 347.625C369.23 352.035 365.765 355.5 361.355 355.5ZM392.855 355.5C388.445 355.5 384.98 352.035 384.98 347.625C384.98 343.215 388.445 339.75 392.855 339.75C397.265 339.75 400.73 343.215 400.73 347.625C400.73 352.035 397.265 355.5 392.855 355.5ZM408.605 355.5C404.195 355.5 400.73 352.035 400.73 347.625C400.73 343.215 404.195 339.75 408.605 339.75C413.015 339.75 416.48 343.215 416.48 347.625C416.48 352.035 413.015 355.5 408.605 355.5ZM377.105 355.5C372.695 355.5 369.23 352.035 369.23 347.625C369.23 343.215 372.695 339.75 377.105 339.75C381.515 339.75 384.98 343.215 384.98 347.625C384.98 352.035 381.515 355.5 377.105 355.5ZM377.105 371.25C372.695 371.25 369.23 367.785 369.23 363.375C369.23 358.965 372.695 355.5 377.105 355.5C381.515 355.5 384.98 358.965 384.98 363.375C384.98 367.785 381.515 371.25 377.105 371.25ZM345.605 371.25C341.195 371.25 337.73 367.785 337.73 363.375C337.73 358.965 341.195 355.5 345.605 355.5C350.015 355.5 353.48 358.965 353.48 363.375C353.48 367.785 350.015 371.25 345.605 371.25ZM361.355 371.25C356.945 371.25 353.48 367.785 353.48 363.375C353.48 358.965 356.945 355.5 361.355 355.5C365.765 355.5 369.23 358.965 369.23 363.375C369.23 367.785 365.765 371.25 361.355 371.25ZM392.855 371.25C388.445 371.25 384.98 367.785 384.98 363.375C384.98 358.965 388.445 355.5 392.855 355.5C397.265 355.5 400.73 358.965 400.73 363.375C400.73 367.785 397.265 371.25 392.855 371.25ZM345.605 387C341.195 387 337.73 383.535 337.73 379.125C337.73 374.715 341.195 371.25 345.605 371.25C350.015 371.25 353.48 374.715 353.48 379.125C353.48 383.535 350.015 387 345.605 387ZM392.855 387C388.445 387 384.98 383.535 384.98 379.125C384.98 374.715 388.445 371.25 392.855 371.25C397.265 371.25 400.73 374.715 400.73 379.125C400.73 383.535 397.265 387 392.855 387ZM377.105 387C372.695 387 369.23 383.535 369.23 379.125C369.23 374.715 372.695 371.25 377.105 371.25C381.515 371.25 384.98 374.715 384.98 379.125C384.98 383.535 381.515 387 377.105 387ZM361.355 387C356.945 387 353.48 383.535 353.48 379.125C353.48 374.715 356.945 371.25 361.355 371.25C365.765 371.25 369.23 374.715 369.23 379.125C369.23 383.535 365.765 387 361.355 387ZM377.105 402.75C372.695 402.75 369.23 399.285 369.23 394.875C369.23 390.465 372.695 387 377.105 387C381.515 387 384.98 390.465 384.98 394.875C384.98 399.285 381.515 402.75 377.105 402.75ZM361.355 402.75C356.945 402.75 353.48 399.285 353.48 394.875C353.48 390.465 356.945 387 361.355 387C365.765 387 369.23 390.465 369.23 394.875C369.23 399.285 365.765 402.75 361.355 402.75ZM345.605 402.75C341.195 402.75 337.73 399.285 337.73 394.875C337.73 390.465 341.195 387 345.605 387C350.015 387 353.48 390.465 353.48 394.875C353.48 399.285 350.015 402.75 345.605 402.75ZM329.855 402.75C325.445 402.75 321.98 399.285 321.98 394.875C321.98 390.465 325.445 387 329.855 387C334.265 387 337.73 390.465 337.73 394.875C337.73 399.285 334.265 402.75 329.855 402.75ZM361.355 418.5C356.945 418.5 353.48 415.035 353.48 410.625C353.48 406.215 356.945 402.75 361.355 402.75C365.765 402.75 369.23 406.215 369.23 410.625C369.23 415.035 365.765 418.5 361.355 418.5ZM377.105 418.5C372.695 418.5 369.23 415.035 369.23 410.625C369.23 406.215 372.695 402.75 377.105 402.75C381.515 402.75 384.98 406.215 384.98 410.625C384.98 415.035 381.515 418.5 377.105 418.5ZM345.605 418.5C341.195 418.5 337.73 415.035 337.73 410.625C337.73 406.215 341.195 402.75 345.605 402.75C350.015 402.75 353.48 406.215 353.48 410.625C353.48 415.035 350.015 418.5 345.605 418.5ZM329.855 418.5C325.445 418.5 321.98 415.035 321.98 410.625C321.98 406.215 325.445 402.75 329.855 402.75C334.265 402.75 337.73 406.215 337.73 410.625C337.73 415.035 334.265 418.5 329.855 418.5Z" fill="#FFFFE2"/>
</svg>
